<?xml version="1.0" standalone="no"?>
<!DOCTYPE svg PUBLIC "-//W3C//DTD SVG 1.1//EN" "http://www.w3.org/Graphics/SVG/1.1/DTD/svg11.dtd" >
<svg xmlns="http://www.w3.org/2000/svg">
<metadata></metadata>
<defs>
<font id="bree_rgoblique" horiz-adv-x="1095" >
<font-face units-per-em="2048" ascent="1475" descent="-573" />
<missing-glyph horiz-adv-x="421" />
<glyph unicode="&#xfb01;" horiz-adv-x="1075" d="M57 -430l271 1538q9 52 21.5 93t33.5 86t53.5 78t76.5 60.5t108 41.5t143 14q98 0 197.5 -28t164.5 -64l-88 -162q-131 69 -262 69q-88 0 -137 -40.5t-66 -129.5l-16 -96h578l-183 -1030h-243l147 840h-332l-225 -1270h-242z" />
<glyph unicode="&#xfb02;" horiz-adv-x="1243" d="M57 -430l271 1538q11 64 26.5 112.5t47 100t77 84.5t118.5 54.5t169 21.5q133 0 295 -66q49 -6 143 -18l-188 -1063q-18 -95 -0.5 -134.5t78.5 -39.5t135 33l24 -164q-46 -30 -115 -47t-134 -17q-72 0 -122 15.5t-76 45t-39 66t-12 84t7 93.5t15 100q4 17 5 26l78 445 h-336l-225 -1270h-242zM557 1030h338l39 234q-77 32 -170 32q-85 0 -129.5 -40t-61.5 -130z" />
<glyph unicode="&#xfb03;" horiz-adv-x="1656" d="M57 -430l271 1538q11 64 26.5 112t47 99.5t76 85t116.5 55t166 21.5q76 0 162 -22.5t147 -53.5q102 76 281 76q95 0 193.5 -29.5t162.5 -65.5l-86 -159q-131 69 -254 69q-91 0 -142.5 -39t-68.5 -131l-16 -96h577l-182 -1030h-244l148 840h-332l-225 -1270h-242l223 1270 h-338l-225 -1270h-242zM557 1030h338l14 78q15 86 43 145q-100 43 -188 43q-85 0 -129.5 -40t-61.5 -130z" />
<glyph unicode="&#xfb04;" horiz-adv-x="1826" d="M57 -430l271 1538q11 60 26 107.5t47.5 99.5t77.5 86.5t118.5 57t168.5 22.5q165 0 309 -76q72 40 140 58t161 18q79 0 190.5 -20.5t221.5 -61.5l-189 -1063q-8 -44 -8 -82q0 -49 20.5 -70.5t67.5 -21.5q50 0 136 33l32 -166q-45 -26 -120 -43t-142 -17q-244 0 -244 226 q0 37 11 108l94 537h-338l-225 -1270h-244l225 1270h-340l-225 -1270h-242zM557 1030h340l14 78q15 87 41 137q-93 51 -188 51q-91 0 -133.5 -43.5t-61.5 -148.5zM1141 1030h338l41 232q-84 34 -172 34q-84 0 -130 -42.5t-61 -127.5z" />
<glyph horiz-adv-x="0" />
<glyph horiz-adv-x="0" />
<glyph horiz-adv-x="682" />
<glyph unicode="&#xd;" horiz-adv-x="450" />
<glyph unicode=" "  horiz-adv-x="421" />
<glyph unicode="&#x09;" horiz-adv-x="421" />
<glyph unicode="&#xa0;" horiz-adv-x="421" />
<glyph unicode="!" horiz-adv-x="542" d="M147 82q0 63 49 109.5t115 46.5q59 0 91 -31t32 -82q0 -63 -47.5 -110.5t-116.5 -47.5q-60 0 -91.5 31.5t-31.5 83.5zM268 369l84 716l43 242q19 96 131 96q115 0 97 -100l-43 -238l-166 -716h-146z" />
<glyph unicode="&#x22;" horiz-adv-x="714" d="M293 891l61 471h191l-103 -471h-149zM586 891l61 471h193l-103 -471h-151z" />
<glyph unicode="#" horiz-adv-x="1093" d="M94 322l25 135h217l86 319h-207l23 135h219l88 328h149l-88 -328h225l89 328h149l-88 -328h207l-25 -135h-217l-86 -319h207l-23 -135h-219l-84 -322h-149l84 322h-225l-84 -322h-150l84 322h-207zM485 457h226l86 319h-226z" />
<glyph unicode="$" d="M139 158l113 182q122 -90 250 -109l65 377q-4 0 -8 4q-41 17 -68.5 30.5t-63.5 35t-59.5 45.5t-45.5 55t-32.5 71.5t-10.5 88.5q0 177 112.5 282t304.5 119l35 191h154l-35 -199q92 -18 173.5 -65t133.5 -107l-147 -147q-57 53 -101 82.5t-94 40.5l-63 -359l12 -4 q51 -22 83.5 -38.5t75.5 -46.5t67.5 -62t42.5 -80.5t18 -106.5q0 -174 -116 -284t-317 -127l-43 -248h-153l43 252q-103 12 -192.5 50t-133.5 77zM526 985q0 -85 84 -139l52 289q-61 -13 -98.5 -50t-37.5 -100zM655 238q144 33 144 172q0 82 -88 135z" />
<glyph unicode="%" horiz-adv-x="1640" d="M205 897q0 209 111 329t286 120q125 0 196.5 -75.5t71.5 -219.5q0 -205 -106 -329t-289 -124q-132 0 -201 76.5t-69 222.5zM385 883q0 -78 30.5 -116t82.5 -38q80 0 135.5 79t56.5 247q0 159 -112 159q-82 0 -137.5 -85t-55.5 -246zM449 55l825 1284l153 -71l-829 -1286z M1010 260q0 213 108.5 336t280.5 123q127 0 201.5 -74t74.5 -217q0 -208 -104 -331.5t-283 -123.5q-136 0 -207 73.5t-71 213.5zM1188 254q0 -154 108 -154q37 0 70.5 17.5t62.5 54t46 102t18 152.5q0 160 -109 160q-83 0 -139.5 -85.5t-56.5 -246.5z" />
<glyph unicode="&#x26;" horiz-adv-x="1644" d="M207 459q0 130 42 249t118.5 213.5t196 150.5t263.5 56q131 0 216 -60.5t85 -160.5q0 -63 -32.5 -123t-91.5 -100q96 39 175.5 104.5t136 148t92.5 154t69 156.5l215 -67q-198 -470 -607 -623q-111 -42 -280 -67.5t-354 -28.5q-7 -148 76.5 -220.5t222.5 -72.5 q80 0 151.5 22t137.5 68t121 124.5t91 184.5h379l-33 -186h-200q-35 -68 -75.5 -124.5t-100 -110t-130 -90t-166.5 -59t-208 -22.5t-201 27t-146 72.5t-94.5 109t-53 131t-15.5 144.5zM475 629q410 19 410 223q0 35 -25 59.5t-76 24.5q-93 0 -179 -75t-130 -232z" />
<glyph unicode="'" horiz-adv-x="421" d="M293 891l61 471h191l-103 -471h-149z" />
<glyph unicode="(" horiz-adv-x="655" d="M215 336q0 548 451 1157l190 -104q-207 -304 -303 -543t-96 -504q0 -311 100 -621l-209 -86q-63 155 -98 342.5t-35 358.5z" />
<glyph unicode=")" horiz-adv-x="655" d="M-2 -254q104 156 170.5 271.5t121.5 244t80 256t25 268.5q0 296 -104 615l215 80q62 -155 95.5 -343t33.5 -362q0 -300 -113 -575.5t-342 -569.5z" />
<glyph unicode="*" horiz-adv-x="843" d="M270 1251q0 41 27 68t65 27q67 0 123.5 -51.5t75.5 -116.5q-61 -27 -139 -27q-35 0 -67 8t-58.5 32t-26.5 60zM309 924q0 41 29.5 76t73 57t87.5 35.5t79 15.5q-7 -58 -34 -115.5t-55 -89.5q-44 -51 -108 -51q-34 0 -53 21.5t-19 50.5zM584 1399q0 64 29 108.5t81 44.5 q74 0 74 -84q0 -71 -36.5 -132.5t-92.5 -100.5q-55 60 -55 164zM654 1033.5q-4 43.5 1 74.5q39 -4 85.5 -25t84 -59.5t37.5 -81.5q0 -40 -24.5 -65t-65.5 -25q-42 0 -69.5 28.5t-36 69t-12.5 84zM696 1178q36 68 104.5 118t137.5 50q37 0 57.5 -21.5t20.5 -54.5 q0 -61 -56.5 -90t-128.5 -29q-85 0 -135 27z" />
<glyph unicode="+" d="M223 545l35 200h317l58 332h207l-58 -332h316l-35 -200h-315l-58 -326h-209l60 326h-318z" />
<glyph unicode="," horiz-adv-x="473" d="M8 -274q74 264 133 403q24 56 53 82.5t72 26.5q47 0 91.5 -28t66.5 -58l-295 -469z" />
<glyph unicode="-" horiz-adv-x="659" d="M145 496l33 188h537l-33 -188h-537z" />
<glyph unicode="." horiz-adv-x="448" d="M98 84q0 69 48 116.5t120 47.5q59 0 91 -30.5t32 -82.5q0 -68 -46.5 -117t-119.5 -49q-61 0 -93 31t-32 84z" />
<glyph unicode="/" horiz-adv-x="876" d="M-45 -143l956 1669l193 -99l-961 -1673z" />
<glyph unicode="0" d="M162 420q0 133 22 268q30 173 88 301t138 205.5t175 114.5t208 37q175 0 272.5 -118t97.5 -341q0 -142 -18 -248q-31 -179 -86 -307t-132.5 -205t-172.5 -112t-215 -35q-187 0 -282 110.5t-95 329.5zM408 422q0 -246 170 -246q55 0 99 19.5t87 69t78.5 145.5t60.5 237 q17 100 17 246q0 252 -168 252q-57 0 -102 -22.5t-87.5 -76.5t-76 -151.5t-58.5 -239.5q-20 -113 -20 -233z" />
<glyph unicode="1" horiz-adv-x="929" d="M168 0l35 188h241l152 867l-295 -142l-61 158l446 248h217l-51 -193l-164 -938h234l-35 -188h-719z" />
<glyph unicode="2" horiz-adv-x="1050" d="M72 0l28 158l537 506q107 100 154 170.5t47 152.5q0 66 -40.5 102.5t-101.5 36.5q-78 0 -151.5 -37.5t-161.5 -105.5l-109 162q109 93 235.5 147t252.5 54q160 0 250 -85t90 -221q0 -124 -58 -232t-186 -226l-420 -383h580l-37 -199h-909z" />
<glyph unicode="3" horiz-adv-x="1054" d="M90 84l100 186q62 -38 151.5 -64t168.5 -26q111 0 181.5 58t70.5 159q0 106 -82 207q-87 -35 -242 -67l-37 180q87 20 147.5 38t121 44t97 55t59 69.5t22.5 90.5q0 58 -37.5 89.5t-101.5 31.5q-140 0 -347 -142l-94 154q92 78 230 138.5t280 60.5q162 0 244 -79t82 -196 q0 -110 -52 -192.5t-171 -153.5q129 -155 129 -315q0 -87 -30 -163.5t-89 -138t-158.5 -97.5t-228.5 -36q-120 0 -234 33t-180 76z" />
<glyph unicode="4" horiz-adv-x="1097" d="M137 317l29 170l559 863l184 -97l-481 -743h299l27 141l123 242h153l-69 -383h184l-33 -195h-184l-56 -315h-247l57 317h-545z" />
<glyph unicode="5" horiz-adv-x="1038" d="M63 90l107 189q161 -99 311 -99q131 0 195.5 63.5t64.5 162.5q0 43 -16.5 76.5t-40.5 55.5t-65.5 37.5t-77.5 24t-91 13t-90.5 6t-91.5 2.5h-2h-2l211 698h676l-37 -203h-481l-101 -328q77 -4 143 -18t126.5 -42.5t103 -69t67.5 -102t25 -138.5q0 -67 -16 -128t-55 -119 t-97.5 -100.5t-150 -68t-205.5 -25.5q-116 0 -236 35.5t-174 77.5z" />
<glyph unicode="6" d="M190 397q0 113 17 209q122 674 813 768l18 -188q-217 -37 -360.5 -149t-196.5 -283q65 35 152.5 60.5t159.5 25.5q139 0 214.5 -87.5t75.5 -220.5q0 -77 -6 -114q-31 -208 -166 -324.5t-352 -116.5q-97 0 -169.5 32t-115.5 90t-63.5 132.5t-20.5 165.5zM430 391 q0 -225 162 -225q93 0 159 62.5t87 197.5q6 37 6 66q0 85 -38 129.5t-110 44.5q-54 0 -130 -25t-117 -55q-19 -85 -19 -195z" />
<glyph unicode="7" horiz-adv-x="958" d="M227 0l21 115q17 97 40 183.5t66.5 196t101 208t147.5 207.5t202 206h-561l37 203h880l-31 -170q-133 -97 -239 -215t-169.5 -222.5t-111.5 -226t-69.5 -206t-38.5 -181.5l-17 -98h-258z" />
<glyph unicode="8" d="M158 276q0 78 28.5 146t80.5 120.5t98 86t108 69.5q-154 110 -154 265q0 163 126.5 273t336.5 110q91 0 160 -22.5t108.5 -61.5t58.5 -85.5t19 -99.5q0 -203 -254 -364q187 -125 187 -303q0 -86 -30.5 -161.5t-91 -137.5t-162.5 -98t-234 -36q-84 0 -151 17.5t-110 46.5 t-71.5 68.5t-40.5 80.5t-12 86zM395 313q0 -68 42.5 -111.5t133.5 -43.5q104 0 167 62.5t63 154.5q0 75 -47.5 128.5t-124.5 96.5q-104 -58 -169 -127t-65 -160zM559 999q0 -113 150 -198q194 118 194 250q0 58 -39.5 91.5t-105.5 33.5q-90 0 -144.5 -50.5t-54.5 -126.5z " />
<glyph unicode="9" d="M233 813q0 149 60.5 269t180 192t278.5 72q100 0 174.5 -33t119 -94t66 -140t21.5 -178q0 -87 -12.5 -172t-41.5 -173t-72.5 -166.5t-110 -150.5t-149.5 -127.5t-195.5 -94.5t-244.5 -54l-20 184q215 34 359 141t194 279q-59 -42 -136 -65t-151 -23q-154 0 -237 89.5 t-83 244.5zM479 831q0 -83 41 -131.5t121 -48.5q57 0 124.5 24.5t113.5 63.5q14 83 14 176q0 115 -39 177.5t-129 62.5q-105 0 -175.5 -85.5t-70.5 -238.5z" />
<glyph unicode=":" horiz-adv-x="448" d="M98 84q0 69 48 116.5t120 47.5q59 0 91 -30.5t32 -82.5q0 -68 -46.5 -117t-119.5 -49q-61 0 -93 31t-32 84zM236 856q0 68 47 116t118 48q60 0 92.5 -30.5t32.5 -82.5q0 -68 -47 -117t-121 -49q-60 0 -91 31t-31 84z" />
<glyph unicode=";" horiz-adv-x="473" d="M6 -274q78 268 135 403q22 56 51 82.5t72 26.5q48 0 91.5 -27.5t68.5 -58.5l-295 -469zM272 856q0 68 47.5 116t118.5 48q60 0 92.5 -30.5t32.5 -82.5q0 -68 -47 -117t-121 -49q-60 0 -91.5 31t-31.5 84z" />
<glyph unicode="&#x3c;" d="M242 575l28 158l801 365l64 -185l-617 -262l516 -268l-110 -178z" />
<glyph unicode="=" d="M180 334l37 196h830l-37 -196h-830zM252 725l35 197h829l-35 -197h-829z" />
<glyph unicode="&#x3e;" d="M197 399l612 271l-508 262l105 168l684 -365l-29 -160l-795 -360z" />
<glyph unicode="?" horiz-adv-x="784" d="M164 82q0 63 49 109.5t115 46.5q59 0 91 -31t32 -82q0 -63 -47.5 -110.5t-116.5 -47.5q-59 0 -91 31.5t-32 83.5zM252 369q6 131 22 215q21 121 62 187.5t141 129.5q99 62 128 88q63 58 63 131q0 55 -30.5 83t-82.5 28q-87 0 -244 -55l-8 188q172 59 303 59 q150 0 224.5 -73.5t74.5 -188.5q0 -91 -31.5 -158.5t-91.5 -121.5t-172 -125q-65 -40 -93 -72t-38 -90l-41 -225h-186z" />
<glyph unicode="@" horiz-adv-x="1951" d="M197 283q0 199 53 368.5t148.5 294.5t226 213t287.5 132t331 44q311 0 501.5 -164.5t190.5 -451.5q0 -345 -173.5 -532t-458.5 -187h-117l4 113q-1 0 -3 1t-3 1q-98 -121 -262 -121q-74 0 -128.5 24t-85.5 68t-45 97.5t-14 119.5q0 268 146 433t397 165q142 0 293 -59 l-119 -697q80 5 146.5 37.5t121 96t85 170.5t30.5 249q0 217 -130 344t-390 127q-199 0 -361 -69.5t-266 -188.5t-159.5 -274.5t-55.5 -331.5q0 -249 130.5 -397t385.5 -148q177 0 334 64l25 -150q-173 -69 -394 -69q-140 0 -254 36.5t-190.5 99t-128.5 149.5t-75 185 t-23 208zM852 332q0 -182 141 -182q74 0 128.5 42t72.5 123l74 420q-51 19 -117 19q-75 0 -134.5 -38.5t-94 -101t-52.5 -135t-18 -147.5z" />
<glyph unicode="A" horiz-adv-x="1280" d="M25 0l698 1362h295l237 -1362h-245l-58 360h-479l-184 -360h-264zM549 549h379l-80 584h-10z" />
<glyph unicode="B" horiz-adv-x="1187" d="M143 0l240 1362h461q391 0 391 -279q0 -228 -248 -348q98 -27 153.5 -95t55.5 -173q0 -220 -157.5 -343.5t-446.5 -123.5h-449zM428 193h195q305 0 305 256q0 84 -57.5 129t-163.5 45h-205zM535 805h153q144 0 214.5 62t70.5 165q0 80 -53.5 111t-151.5 31h-168z" />
<glyph unicode="C" horiz-adv-x="1208" d="M193 518q0 188 42.5 338.5t113 248t167 162.5t198 92t212.5 27q145 0 259.5 -66.5t182.5 -195.5l-190 -118q-103 170 -273 170q-200 0 -325 -170t-125 -453q0 -178 71.5 -274.5t218.5 -96.5q159 0 345 144l106 -164q-236 -187 -502 -187q-237 0 -369 140.5t-132 402.5z " />
<glyph unicode="D" horiz-adv-x="1318" d="M143 0l240 1362h444q258 0 400.5 -133t142.5 -385q0 -176 -41 -319t-112 -239.5t-169.5 -161.5t-210.5 -94.5t-239 -29.5h-455zM428 197h205q219 0 349 167.5t130 452.5q0 346 -330 346h-184z" />
<glyph unicode="E" horiz-adv-x="1042" d="M143 0l240 1362h821l-37 -217h-573l-59 -342h491l-39 -215h-491l-64 -371h586l-39 -217h-836z" />
<glyph unicode="F" horiz-adv-x="1058" d="M143 0l240 1362h872l-36 -217h-625l-62 -350h519l-39 -217h-518l-101 -578h-250z" />
<glyph unicode="G" horiz-adv-x="1282" d="M193 520q0 185 42 334.5t111.5 247t164.5 163t196 93.5t211 28q93 0 173.5 -24.5t155 -84.5t121.5 -153l-194 -116q-53 86 -120 127t-157 41q-197 0 -320.5 -173.5t-123.5 -463.5q0 -174 70.5 -267.5t215.5 -93.5t234 51l55 295h-201l29 189h442l-108 -607 q-99 -58 -231 -94.5t-269 -36.5q-238 0 -367.5 137t-129.5 408z" />
<glyph unicode="H" horiz-adv-x="1368" d="M143 0l240 1362h250l-96 -557h579l96 557h252l-239 -1362h-252l104 588h-579l-105 -588h-250z" />
<glyph unicode="I" horiz-adv-x="544" d="M147 0l240 1362h250l-240 -1362h-250z" />
<glyph unicode="J" horiz-adv-x="880" d="M33 86l106 180q103 -80 221 -80q89 0 135 47.5t62 137.5l174 991h250l-154 -873q-13 -84 -47 -215q-43 -160 -136.5 -229.5t-266.5 -69.5q-105 0 -196 33t-148 78z" />
<glyph unicode="K" horiz-adv-x="1187" d="M143 0l240 1362h248l-121 -664h6l592 664h276l-485 -553l281 -809h-275l-205 610l-249 -268l-60 -342h-248z" />
<glyph unicode="L" horiz-adv-x="1024" d="M145 0l240 1362h250l-201 -1145h578l-39 -217h-828z" />
<glyph unicode="M" horiz-adv-x="1654" d="M129 0l317 1362h273l182 -893h6l498 893h287l-166 -1362h-238l115 938h-6l-453 -784h-188l-170 776h-4l-215 -930h-238z" />
<glyph unicode="N" horiz-adv-x="1363" d="M143 0l240 1362h252l409 -946h3l165 946h248l-239 -1362h-240l-418 961h-4l-168 -961h-248z" />
<glyph unicode="O" horiz-adv-x="1359" d="M190 492q0 122 19 225q27 155 85 275t129.5 193t161 119.5t172 64t171.5 17.5q103 0 189 -32.5t150.5 -95t101 -162.5t36.5 -228q0 -102 -16 -206q-27 -179 -92 -312.5t-159.5 -214.5t-210.5 -120.5t-253 -39.5q-229 0 -356.5 135.5t-127.5 381.5zM451 516 q0 -334 268 -334q89 0 161.5 40t120.5 110t79 152t48 180q15 96 15 165q0 55 -7 102.5t-25 93.5t-46 78.5t-72.5 52.5t-101.5 20q-89 0 -163 -39t-124.5 -107t-84 -150.5t-50.5 -177.5q-18 -106 -18 -186z" />
<glyph unicode="P" horiz-adv-x="1163" d="M143 0l240 1362h461q202 0 315 -91t113 -261q0 -255 -167 -394t-448 -139h-180l-84 -477h-250zM512 676h147q78 0 140 16t110.5 50.5t74.5 94.5t26 142q0 48 -14.5 82.5t-36.5 54t-59 30.5t-72 14t-85 3h-145z" />
<glyph unicode="Q" horiz-adv-x="1349" d="M158 100q0 150 92.5 231t271.5 81q97 0 201 -33t178 -86q87 106 143 252.5t56 292.5q0 76 -15 136t-48 107.5t-89 73t-133 25.5q-159 0 -242.5 -82t-83.5 -197q0 -94 42.5 -145.5t148.5 -83.5l-51 -166q-77 9 -144.5 35t-123.5 70t-88.5 113.5t-32.5 156.5 q0 226 165.5 365.5t448.5 139.5q234 0 371 -130t137 -386q0 -189 -75 -367t-202 -331q123 -138 231 -208.5t271 -96.5l-84 -191q-173 24 -310 109t-263 231q-209 -174 -461 -174q-84 0 -147 23t-97.5 62t-50.5 82t-16 91zM389 123q0 -44 29 -71t92 -27q74 0 133 29t127 89 q-133 88 -246 88q-59 0 -97 -26.5t-38 -81.5z" />
<glyph unicode="R" horiz-adv-x="1218" d="M143 0l240 1362h457q209 0 321.5 -79t112.5 -241q0 -90 -26.5 -163t-73 -122.5t-99 -81t-114.5 -50.5q39 -17 58.5 -46.5t37.5 -91.5l137 -487h-268l-115 436q-16 55 -42 81t-77 26h-203l-96 -543h-250zM520 725h205q131 0 210 74.5t79 206.5q0 49 -17.5 81t-55.5 48.5 t-83 22t-115 5.5h-145z" />
<glyph unicode="S" horiz-adv-x="1101" d="M92 123l121 194q66 -47 165.5 -88t194.5 -41q49 0 91 9.5t80 30.5t60.5 61.5t22.5 97.5q0 23 -6.5 43t-15.5 35.5t-27.5 31t-32.5 25t-41 22.5t-43 20t-48 20t-48 20q-53 22 -88.5 40t-80 49.5t-71 66t-45 86.5t-18.5 115q0 200 137.5 312.5t368.5 112.5q143 0 266.5 -58 t194.5 -140l-158 -160q-155 148 -319 148q-46 0 -84 -8t-72 -27t-53 -53.5t-19 -83.5q0 -43 18.5 -77.5t55.5 -60t74.5 -44t90.5 -41.5q9 -3 13 -5q39 -17 64.5 -28.5t62.5 -32t60.5 -39.5t51 -46.5t43 -57.5t26 -69.5t10.5 -84.5q0 -204 -142 -324.5t-387 -120.5 q-149 0 -280 48.5t-193 101.5z" />
<glyph unicode="T" horiz-adv-x="1101" d="M238 1145l36 217h1033l-37 -217h-398l-200 -1145h-250l203 1145h-387z" />
<glyph unicode="U" horiz-adv-x="1288" d="M201 322q0 64 10 118l162 922h248l-160 -918q-8 -54 -8 -73q0 -101 58.5 -144t170.5 -43q128 0 203 60t98 190l164 928h248l-170 -961q-76 -428 -561 -428q-232 0 -347.5 86t-115.5 263z" />
<glyph unicode="V" horiz-adv-x="1212" d="M260 1362h242l145 -1071h4l520 1071h261l-695 -1362h-262z" />
<glyph unicode="W" horiz-adv-x="1669" d="M279 1362h245l23 -1034h2l383 925h260l53 -907h4l371 1016h250l-533 -1362h-278l-43 686l-21 199l-372 -885h-285z" />
<glyph unicode="X" horiz-adv-x="1249" d="M-6 0l606 725l-309 637h284l207 -463l373 463h293l-547 -651l354 -711h-280l-254 518l-424 -518h-303z" />
<glyph unicode="Y" horiz-adv-x="1144" d="M242 1362h262l192 -602h2l408 602h276l-596 -842l-92 -520h-250l93 520z" />
<glyph unicode="Z" horiz-adv-x="1034" d="M55 0l31 170l791 997h-603l33 195h897l-28 -166l-795 -1001h643l-37 -195h-932z" />
<glyph unicode="[" horiz-adv-x="614" d="M104 -340l318 1802h432l-31 -166h-207l-258 -1470h205l-28 -166h-431z" />
<glyph unicode="\" horiz-adv-x="876" d="M229 1473l228 55l379 -1665l-226 -53z" />
<glyph unicode="]" horiz-adv-x="614" d="M-41 -340l29 166h207l258 1470h-205l31 166h430l-318 -1802h-432z" />
<glyph unicode="^" horiz-adv-x="1132" d="M209 618l518 762h178l246 -764l-199 -30l-170 544l-364 -546z" />
<glyph unicode="_" horiz-adv-x="1024" d="M-53 -301l26 149h1024l-26 -149h-1024z" />
<glyph unicode="`" horiz-adv-x="1024" d="M584 1483q0 52 42 80t109 43l193 -389l-86 -60q-152 156 -219 236q-39 45 -39 90z" />
<glyph unicode="a" horiz-adv-x="1103" d="M147 346q0 213 73 373.5t217.5 251t344.5 90.5q73 0 172.5 -17.5t194.5 -54.5l-139 -792l-15 -197h-211l4 109q-2 0 -4 1t-4 1q-62 -74 -135 -107t-174 -33q-158 0 -241 102t-83 273zM391 373q0 -100 39 -163t129 -63q93 0 157 54t77 125l92 532q-52 25 -146 25 q-77 0 -139 -34.5t-100 -87.5t-63.5 -123t-35.5 -135.5t-10 -129.5z" />
<glyph unicode="b" horiz-adv-x="1097" d="M137 57l244 1366h244l-82 -456q112 94 264 94q158 0 244 -99t86 -284q0 -331 -159 -520t-446 -189q-107 0 -221 25.5t-174 62.5zM406 184q72 -39 161 -39q60 0 117 34.5t103 96.5t74 158t28 209q0 47 -8.5 87t-28 75.5t-56 56.5t-87.5 21q-74 0 -134.5 -43.5 t-72.5 -110.5z" />
<glyph unicode="c" horiz-adv-x="942" d="M156 399q0 143 34 258.5t89.5 189.5t130 123.5t150.5 70t157 20.5q115 0 211 -50.5t147 -160.5l-168 -111q-75 127 -192 127q-137 0 -223 -119.5t-86 -320.5q0 -123 51.5 -192.5t156.5 -69.5q118 0 248 86l74 -166q-68 -51 -171.5 -83t-215.5 -32q-189 0 -291 113 t-102 317z" />
<glyph unicode="d" horiz-adv-x="1103" d="M147 352q0 204 71 363.5t210.5 252.5t327.5 93q85 0 162 -25l69 387h242l-217 -1220l-17 -203h-209l5 111q-2 0 -5.5 1t-5.5 1q-58 -69 -137 -106.5t-164 -37.5q-90 0 -156.5 31.5t-103.5 87t-54.5 121t-17.5 143.5zM395 381q0 -231 164 -231q93 0 158 52t76 117l92 535 q-55 16 -117 16q-115 0 -201 -66.5t-129 -176.5t-43 -246z" />
<glyph unicode="e" horiz-adv-x="962" d="M154 381q0 133 42 255.5t117.5 217t190 151t250.5 56.5q138 0 216.5 -65.5t78.5 -174.5q0 -74 -25 -135t-65 -101.5t-97.5 -71.5t-114 -48.5t-124 -28.5t-119 -14.5t-105.5 -3.5q-1 -17 -1 -33q0 -33 6 -63q8 -44 31 -82.5t67.5 -60t107.5 -21.5q123 0 264 90l74 -160 q-55 -42 -159 -80.5t-238 -38.5q-103 0 -180 30.5t-124 86.5t-70 130t-23 165zM422 584h17q34 0 71 3q47 4 105 17.5t103 35t76 60t31 88.5q0 46 -29.5 71.5t-78.5 25.5q-61 0 -113 -27.5t-87.5 -73t-59 -96t-35.5 -104.5z" />
<glyph unicode="f" horiz-adv-x="694" d="M57 -430l267 1517q11 63 25 109.5t44 99.5t71 86t108 55.5t155 22.5q74 0 155 -22t130 -52l-84 -159q-93 49 -187 49q-76 0 -114.5 -38.5t-55.5 -131.5l-14 -76h303l-33 -190h-303l-225 -1270h-242z" />
<glyph unicode="g" horiz-adv-x="1097" d="M123 -285q0 74 19.5 130t62 100.5t98.5 78.5t141 70q-125 13 -204.5 102t-79.5 259q0 142 45 257t124.5 191t189 117t239.5 41q98 0 208 -18.5t185 -53.5l-137 -784q-20 -122 -51 -260q-56 -252 -186.5 -369t-344.5 -117q-150 0 -229.5 68t-79.5 188zM348 -246 q0 -114 123 -114q115 0 174 90t90 266l25 131q-59 -62 -195 -133q-112 -59 -164.5 -110.5t-52.5 -129.5zM401 453q0 -228 174 -228q87 0 152 53t82 148l78 434q-74 19 -131 19q-164 0 -259.5 -120t-95.5 -306z" />
<glyph unicode="h" horiz-adv-x="1099" d="M125 0l252 1423h244l-86 -481q119 119 296 119q134 0 204.5 -63t70.5 -187q0 -59 -12 -129l-121 -682h-244l117 657q8 62 8 91q0 61 -26 92.5t-91 31.5q-93 0 -165.5 -60.5t-86.5 -141.5l-116 -670h-244z" />
<glyph unicode="i" horiz-adv-x="499" d="M133 0l182 1030h246l-182 -1030h-246zM346 1303q0 66 48 112.5t118 46.5q54 0 87.5 -33t33.5 -81q0 -67 -49 -112.5t-119 -45.5q-56 0 -87.5 31t-31.5 82z" />
<glyph unicode="j" horiz-adv-x="499" d="M-272 -385l92 170q77 -43 145 -43q67 0 101.5 39t54.5 139l194 1110h244l-194 -1100q-10 -54 -17 -87t-21.5 -78.5t-30.5 -73.5t-43.5 -59.5t-62 -48.5t-83 -28.5t-109.5 -11.5q-68 0 -146.5 20t-123.5 52zM350 1303q0 66 49 112.5t119 46.5q53 0 86 -33t33 -81 q0 -67 -49 -112.5t-119 -45.5q-56 0 -87.5 31t-31.5 82z" />
<glyph unicode="k" horiz-adv-x="1056" d="M129 0l252 1423h244l-115 -583l8 -2q61 102 157 162.5t212 60.5q107 0 174 -61t67 -185q0 -131 -72 -234.5t-206 -166.5l162 -414h-273l-127 346q-85 -21 -182 -27l-57 -319h-244zM465 500q190 14 304 93.5t114 180.5q0 46 -24 70t-68 24q-94 0 -193.5 -119t-132.5 -249z " />
<glyph unicode="l" horiz-adv-x="661" d="M174 199q0 49 14 135l193 1087h244l-191 -1083q-12 -74 -12 -94q1 -46 22 -65t68 -19q44 0 135 35l31 -164q-46 -28 -118 -45t-140 -17q-132 0 -189 60t-57 170z" />
<glyph unicode="m" horiz-adv-x="1673" d="M133 0l150 852l14 178h203l-4 -127q139 158 327 158q204 0 254 -164q61 79 146.5 121.5t183.5 42.5q132 0 201 -65t69 -193q0 -49 -10 -111l-123 -692h-244l115 649q10 52 10 88q0 65 -25.5 100t-90.5 35q-87 0 -152.5 -62.5t-79.5 -145.5l-116 -664h-244l114 649 q11 57 11 90q0 63 -25.5 98t-93.5 35q-89 0 -153 -63t-78 -150l-115 -659h-244z" />
<glyph unicode="n" horiz-adv-x="1107" d="M133 0l150 852l14 178h205l-2 -129q141 160 342 160q269 0 272 -252q0 -55 -10 -117l-123 -692h-244l115 651q8 44 8 92q0 62 -25.5 95.5t-89.5 33.5q-94 0 -166.5 -61.5t-86.5 -142.5l-117 -668h-242z" />
<glyph unicode="o" horiz-adv-x="1077" d="M147 367q0 89 13 168q20 122 66 217t102.5 152t128.5 93.5t138 50t136 13.5q47 0 93 -8.5t99 -34t92 -66t65 -112t26 -164.5q0 -91 -10 -162q-18 -117 -57 -209.5t-92.5 -155t-122.5 -103.5t-143.5 -59t-158.5 -18q-180 0 -277.5 103t-97.5 295zM397 367q0 -217 162 -217 q109 0 180.5 93.5t100.5 258.5q12 73 12 164q0 215 -160 215q-109 0 -181 -90.5t-99 -243.5q-15 -88 -15 -180z" />
<glyph unicode="p" horiz-adv-x="1101" d="M55 -430l250 1423q234 68 424 68q399 0 399 -416q0 -308 -146 -492t-392 -184q-58 0 -115 17t-94 43l-82 -459h-244zM414 215q29 -30 77.5 -50t100.5 -20q119 0 205 137.5t86 358.5q0 236 -189 236q-90 0 -170 -25z" />
<glyph unicode="q" d="M150 365q0 322 167 509t447 187q200 0 379 -76l-250 -1415h-244l88 500h-6q-108 -101 -262 -101q-153 0 -236 102.5t-83 293.5zM391 377q0 -102 36.5 -166t121.5 -64q90 0 155.5 53t75.5 111l97 549q-68 14 -113 14q-167 0 -270 -124t-103 -373z" />
<glyph unicode="r" horiz-adv-x="749" d="M133 0l154 866l10 164h201l-2 -147q44 86 117.5 132t156.5 46q101 0 162 -41l-78 -199q-61 33 -135 33q-82 0 -144 -57t-83 -148l-115 -649h-244z" />
<glyph unicode="s" horiz-adv-x="858" d="M63 80l99 168q146 -98 280 -98q79 0 129 34t50 99q0 31 -13.5 55t-43 42.5t-52.5 29t-66 26.5q-34 13 -52 20.5t-50 23t-49.5 29t-41 36.5t-35.5 47t-21 58t-9 73q0 109 56.5 187t148 114.5t205.5 36.5q113 0 212.5 -44t154.5 -110l-134 -131q-110 107 -233 107 q-73 0 -119.5 -31t-46.5 -94q0 -17 5 -32t11 -26t20.5 -22.5t24.5 -18.5t32 -17.5t33.5 -15.5t39.5 -16t39 -16q48 -19 84.5 -40t71.5 -53.5t54 -79t19 -104.5q0 -167 -114.5 -257.5t-313.5 -90.5q-121 0 -224.5 36t-150.5 75z" />
<glyph unicode="t" horiz-adv-x="718" d="M174 182q0 51 14 140l195 1101h244l-70 -393h277l-33 -190h-277l-92 -521q-6 -34 -6 -69q1 -57 24.5 -75.5t79.5 -18.5q71 0 154 45l49 -158q-51 -32 -133.5 -53t-155.5 -21q-266 0 -270 213z" />
<glyph unicode="u" horiz-adv-x="1105" d="M178 238q0 40 10 102l121 690h244l-115 -653q-10 -52 -10 -90q0 -60 29.5 -93.5t103.5 -33.5q84 0 153 62t83 143l118 665h244l-151 -858l-15 -172h-209l4 119l-12 2q-116 -150 -313 -150q-144 0 -214.5 69.5t-70.5 197.5z" />
<glyph unicode="v" horiz-adv-x="1087" d="M176 236q0 49 10 114l119 680h246l-115 -645q-12 -58 -12 -111q0 -55 25 -83.5t88 -28.5q101 0 175.5 93.5t109 231.5t34.5 295q0 106 -10 248h241q11 -104 11 -233q0 -399 -153 -612.5t-458 -213.5q-308 0 -311 265z" />
<glyph unicode="w" horiz-adv-x="1636" d="M176 227q0 43 10 101l123 702h244l-113 -647q-14 -68 -14 -113q2 -54 27.5 -82t87.5 -28q82 0 144.5 57.5t76.5 138.5l117 674h243l-116 -647q-13 -76 -13 -109q0 -55 24.5 -84.5t86.5 -29.5q95 0 164.5 88t103 227.5t33.5 308.5q0 128 -12 246h239q15 -147 15 -239 q0 -180 -34 -327.5t-101.5 -258.5t-176 -172.5t-250.5 -61.5q-112 0 -177 46t-81 126q-133 -172 -356 -172q-143 0 -218.5 64t-76.5 192z" />
<glyph unicode="x" horiz-adv-x="964" d="M-6 0l455 539l-234 491h246l145 -328l268 328h261l-420 -495l256 -535h-254l-164 352l-291 -352h-268z" />
<glyph unicode="y" horiz-adv-x="1099" d="M125 -293q0 126 66.5 213t222.5 160q-119 15 -171.5 73t-52.5 162q0 42 9 91l110 624h244l-104 -598q-11 -57 -11 -88q0 -61 32.5 -94t113.5 -33q78 0 142 54.5t79 140.5l110 618h242l-158 -901q-31 -192 -61 -283q-122 -391 -506 -391q-148 0 -227.5 68.5t-79.5 183.5z M352 -248q0 -56 33.5 -85t91.5 -29q103 0 161.5 74.5t84.5 215.5l37 199q-76 -73 -197 -135q-113 -58 -162 -107.5t-49 -132.5z" />
<glyph unicode="z" horiz-adv-x="847" d="M-31 -258q0 160 93 277.5t298 211.5q-30 16 -172 84l27 146l438 379h-465l35 190h768l-26 -153l-523 -455l115 -62q133 -71 193.5 -160t60.5 -220q0 -227 -144.5 -375t-371.5 -148q-161 0 -243.5 76.5t-82.5 208.5zM199 -221q0 -63 30.5 -100t96.5 -37q113 0 181 92 t68 219q0 106 -67 170q-151 -57 -230 -151.5t-79 -192.5z" />
<glyph unicode="{" horiz-adv-x="647" d="M174 -166q0 42 8 78q2 10 49.5 211.5t47.5 263.5q0 54 -24.5 82.5t-78.5 34.5l25 151q89 10 125.5 61t50.5 179q26 243 31 281q16 147 86 222t213 75q84 0 174 -23l-47 -150q-60 11 -80 11q-65 0 -89.5 -32t-37.5 -116q-7 -45 -19.5 -168t-19.5 -168q-15 -101 -58 -161 t-122 -91q42 -21 68 -66t26 -108q0 -66 -50.5 -259.5t-50.5 -233.5q0 -94 84 -94q38 0 82 10l-6 -154q-74 -20 -166 -20q-107 0 -162.5 48t-58.5 136z" />
<glyph unicode="|" horiz-adv-x="561" d="M141 -180l303 1710h215l-303 -1710h-215z" />
<glyph unicode="}" horiz-adv-x="647" d="M-29 -326l45 152q49 -12 82 -12q63 0 88.5 35t38.5 120q6 42 19 180.5t22 188.5q20 111 57 160t121 77q-96 44 -96 177q0 81 45 256t45 213q0 45 -19.5 67.5t-64.5 22.5q-18 0 -82 -11l7 152q89 21 165 21q215 0 224 -168q0 -53 -11 -99q-7 -33 -25.5 -109.5t-29.5 -125 t-21 -108t-10 -95.5q0 -55 24 -83t79 -34l-25 -149q-87 -12 -124 -66.5t-48 -177.5q-18 -202 -35 -324q-23 -157 -95 -220.5t-218 -63.5q-81 0 -158 24z" />
<glyph unicode="~" horiz-adv-x="1224" d="M199 578q82 106 164 162.5t174 56.5q56 0 111.5 -25t93.5 -55t86.5 -55t91.5 -25q95 0 196 135l129 -113q-139 -213 -336 -213q-48 0 -95 16t-83.5 38.5t-70 45t-68 38.5t-64.5 16q-86 0 -202 -137z" />
<glyph unicode="&#xa1;" horiz-adv-x="540" d="M117 -297l43 238l166 716h145l-84 -716l-43 -242q-19 -96 -131 -96q-114 0 -96 100zM305 901q0 63 47.5 110.5t116.5 47.5q59 0 91 -31.5t32 -83.5q0 -63 -49 -109.5t-115 -46.5q-59 0 -91 31t-32 82z" />
<glyph unicode="&#xa2;" d="M258 518q0 132 29 241t77 181.5t114 124t135 77.5t145 34l41 227h153l-41 -234q189 -35 267 -200l-168 -111q-56 94 -133 119l-121 -692q94 9 209 84l73 -166q-132 -96 -317 -113l-37 -213h-154l37 217q-150 23 -229.5 133t-79.5 291zM508 545q0 -177 98 -236l115 658 q-98 -37 -155.5 -148t-57.5 -274z" />
<glyph unicode="&#xa3;" horiz-adv-x="1130" d="M-59 -346l32 203q84 33 143.5 90t98.5 155l80 191h-174l29 172h206l189 485q45 116 94.5 193.5t109 122t124 62.5t149.5 18q109 0 192.5 -42t133.5 -94l-142 -145q-88 88 -188 88q-93 0 -145 -51t-101 -180l-178 -457h326l-29 -170h-359l-65 -162q-37 -91 -87.5 -155.5 t-125.5 -114.5v-4q92 28 164 28q64 0 177 -23.5t185 -23.5q96 0 199 27l-59 -199q-105 -18 -185 -18q-99 0 -259.5 32.5t-252.5 32.5q-61 0 -139 -16.5t-143 -44.5z" />
<glyph unicode="&#xa5;" horiz-adv-x="1114" d="M172 297l27 156h315l27 153h-316l29 156h229l-194 557h246l159 -522h4l346 522h256l-395 -557h223l-26 -156h-314l-26 -153h311l-26 -156h-314l-51 -297h-248l51 297h-313z" />
<glyph unicode="&#xa6;" horiz-adv-x="563" d="M141 -180l135 766h216l-136 -766h-215zM319 825l123 705h215l-122 -705h-216z" />
<glyph unicode="&#xa7;" horiz-adv-x="1130" d="M145 -348l76 162q98 -54 217 -54q83 0 136 46t53 124q0 19 -3 36t-11 33.5t-14.5 28.5t-23 28t-25.5 24.5t-32 25t-33.5 24t-39 26t-39.5 26.5q-100 67 -147.5 150t-47.5 217q0 104 35 227l180 31q-16 -71 -16 -141q0 -85 25.5 -150t62.5 -103.5t96 -76.5 q87 -54 140 -101.5t87.5 -116.5t34.5 -155q0 -171 -112 -276t-306 -105q-84 0 -165.5 22.5t-127.5 47.5zM408 985q0 169 120 275t316 106q85 0 161.5 -19.5t120.5 -43.5l-84 -168q-96 53 -204 53q-85 0 -143 -44.5t-58 -121.5q0 -24 5 -46t20 -43t25.5 -35t37 -35.5 t39 -30.5t47.5 -33.5t47 -32.5q91 -63 143 -150t52 -217q0 -104 -35 -227l-180 -31q16 71 16 142q0 85 -25.5 149.5t-62.5 103t-96 76.5q-87 54 -140 101.5t-87.5 116.5t-34.5 155z" />
<glyph unicode="&#xa8;" horiz-adv-x="1024" d="M424 1341q0 60 45 103t111 43q48 0 78 -31t30 -76q0 -60 -45.5 -102.5t-110.5 -42.5q-50 0 -79 29.5t-29 76.5zM823 1341q0 60 45 103t111 43q48 0 78 -31t30 -76q0 -60 -45.5 -102.5t-109.5 -42.5q-50 0 -79.5 29.5t-29.5 76.5z" />
<glyph unicode="&#xa9;" horiz-adv-x="1667" d="M238 668q0 148 52 280t143 228t222.5 152t282.5 56q156 0 291 -56t228 -151t146.5 -224t53.5 -273q0 -203 -91 -367.5t-256 -259t-372 -94.5q-213 0 -373 91t-243.5 251t-83.5 367zM399 668q0 -255 151 -408.5t390 -153.5q157 0 284 73t199 203t72 292q0 159 -72.5 288 t-200 202t-282.5 73q-159 0 -283 -75t-191 -204.5t-67 -289.5zM590 678q0 91 23 163.5t59 117t84 74t94.5 41t93.5 11.5q194 0 307 -153l-114 -90q-44 48 -90 75t-107 27q-78 0 -132 -62t-54 -202q0 -131 49 -202.5t149 -71.5q57 0 101.5 22t95.5 64l82 -111 q-48 -50 -120.5 -82.5t-162.5 -32.5q-177 0 -267.5 109.5t-90.5 302.5z" />
<glyph unicode="&#xaa;" horiz-adv-x="847" d="M242 786q0 204 115 333.5t313 129.5q149 0 276 -49l-90 -510l-8 -149h-168l2 80h-8q-93 -97 -207 -97q-116 0 -170.5 72.5t-54.5 189.5zM434 807q0 -145 105 -145q55 0 94.5 29t44.5 61l61 346q-28 14 -92 14q-55 0 -98 -29.5t-67 -76.5t-36 -98t-12 -101z" />
<glyph unicode="&#xab;" horiz-adv-x="1085" d="M199 539q0 47 69 104q110 91 398 287l84 -107l-316 -297l180 -323l-106 -82q-73 68 -162.5 175t-130.5 179q-16 27 -16 64zM616 539q0 46 70 104q114 95 397 287l84 -107l-315 -297l180 -323l-106 -82q-73 68 -162.5 175t-130.5 179q-17 28 -17 64z" />
<glyph unicode="&#xac;" d="M221 647l35 197h879l-86 -494h-199l53 297h-682z" />
<glyph unicode="&#xad;" horiz-adv-x="659" d="M174 500l33 190h485l-33 -190h-485z" />
<glyph unicode="&#xae;" horiz-adv-x="948" d="M227 985q0 173 114.5 287t293.5 114q183 0 300.5 -113.5t117.5 -283.5q0 -177 -117 -290t-301 -113q-186 0 -297 111.5t-111 287.5zM336 985q0 -136 84 -221.5t215 -85.5q136 0 222.5 84.5t86.5 222.5q0 133 -87.5 220t-221.5 87q-135 0 -217 -86t-82 -221zM498 774v432 h155q68 0 106 -29t38 -87q0 -87 -70 -119q18 -8 27 -31l73 -166h-102l-63 144q-12 28 -33 28h-39v-172h-92zM590 1020h33q73 0 73 61q0 31 -18 41.5t-55 10.5h-33v-113z" />
<glyph unicode="&#xaf;" horiz-adv-x="1024" d="M436 1268l31 176h588l-31 -176h-588z" />
<glyph unicode="&#xb0;" horiz-adv-x="610" d="M274 1180q0 127 80 204.5t201 77.5q93 0 145 -55t52 -137q0 -120 -76.5 -202.5t-200.5 -82.5q-99 0 -150 54t-51 141zM403 1196q0 -43 22.5 -69.5t63.5 -26.5q61 0 96.5 43t35.5 106q0 45 -21.5 71t-64.5 26q-65 0 -98.5 -43t-33.5 -107z" />
<glyph unicode="&#xb1;" d="M147 72l35 200h305l50 273h-306l35 200h305l58 320h209l-58 -320h316l-35 -200h-316l-49 -273h316l-35 -200h-830z" />
<glyph unicode="&#xb2;" horiz-adv-x="772" d="M207 698l20 119l312 285q59 54 87.5 97t28.5 87q0 34 -21.5 52t-58.5 18q-80 0 -202 -80l-72 115q170 118 328 118q109 0 164 -54.5t55 -141.5q0 -72 -34 -134t-118 -137l-217 -196h316l-27 -148h-561z" />
<glyph unicode="&#xb3;" horiz-adv-x="772" d="M215 754l68 127q92 -54 194 -54q67 0 103 28t36 81q0 46 -34 127q-82 -28 -168 -43l-29 123q148 30 209 60q79 39 80 91q0 72 -82 72q-71 0 -205 -63l-55 110q162 96 317 96q99 0 154 -47.5t55 -122.5q0 -125 -125 -200q64 -114 64 -199q0 -51 -17.5 -94.5t-53.5 -79.5 t-99.5 -57t-147.5 -21q-70 0 -146 20t-118 46z" />
<glyph unicode="&#xb4;" horiz-adv-x="1024" d="M516 1221l297 376q137 -35 137 -108q0 -43 -76 -113q-91 -81 -288 -219z" />
<glyph unicode="&#xb5;" horiz-adv-x="1196" d="M78 -442l260 1472h227l-112 -639q-20 -114 17.5 -179t139.5 -65q97 0 172.5 78.5t98.5 204.5l106 600h232l-144 -819q-7 -37 2.5 -52.5t36.5 -15.5q29 0 82 23l8 -141q-100 -50 -188 -50q-64 0 -110 37.5t-50 100.5q-32 -36 -52.5 -55t-53.5 -41.5t-73.5 -32t-92.5 -9.5 q-75 0 -126 30.5t-71 70.5l-90 -518h-219z" />
<glyph unicode="&#xb6;" horiz-adv-x="1079" d="M252 799q0 146 46.5 255t132.5 176t200.5 99.5t257.5 32.5h287l-205 -1169q-11 -64 -21.5 -111.5t-26 -98t-34 -87.5t-44 -75.5t-58 -66.5t-74.5 -55.5t-94 -48t-116.5 -38.5t-142.5 -32l-30 201q109 24 179.5 53t114 72.5t65 94t34.5 128.5l186 1057h-147l-131 -746 q-168 5 -273.5 96t-105.5 263z" />
<glyph unicode="&#xb7;" horiz-adv-x="632" d="M283 604q0 70 47.5 117t118.5 47q60 0 92 -30.5t32 -82.5q0 -68 -46.5 -115.5t-120.5 -47.5q-60 0 -91.5 30t-31.5 82z" />
<glyph unicode="&#xb8;" horiz-adv-x="1024" d="M195 -455l51 111q65 -29 133 -29q55 0 85 20t30 56q0 41 -44 57.5t-128 14.5l114 231h117l-66 -141q73 -5 118.5 -45.5t45.5 -108.5q0 -57 -23.5 -98.5t-63 -63.5t-83.5 -32.5t-94 -10.5q-122 0 -192 39z" />
<glyph unicode="&#xb9;" horiz-adv-x="772" d="M299 698l25 144h153l82 467l-180 -74l-37 117l281 145h163l-36 -139l-93 -516h144l-27 -144h-475z" />
<glyph unicode="&#xba;" horiz-adv-x="831" d="M233 807q0 100 25 179t64.5 128t93 80.5t107 44t110.5 12.5q52 0 98.5 -13.5t89 -43.5t67.5 -86.5t25 -134.5q0 -207 -110 -328t-287 -121q-137 0 -210 75t-73 208zM428 819q0 -155 104 -155q84 0 135 79t52 222q0 74 -26 111.5t-85 37.5t-100.5 -42t-60.5 -107t-19 -146 z" />
<glyph unicode="&#xbb;" horiz-adv-x="1085" d="M119 219l307 330l-203 291l107 90q147 -129 288 -285q15 -19 21.5 -28.5t13 -26t6.5 -33.5q0 -41 -38 -82q-60 -64 -193 -176.5t-225 -177.5zM537 219l307 330l-203 291l107 90q147 -129 288 -285q15 -19 21.5 -28.5t13 -26t6.5 -33.5q0 -40 -39 -82 q-60 -65 -192.5 -177.5t-224.5 -176.5z" />
<glyph unicode="&#xbc;" horiz-adv-x="1689" d="M190 535l25 143h154l82 467l-181 -74l-37 117l281 145h164l-37 -139l-92 -516h143l-26 -143h-476zM512 55l825 1284l154 -71l-829 -1286zM1067 178l20 109l345 534l139 -67l-295 -445h149l103 213h112l-38 -213h124l-22 -135h-125l-33 -174h-178l31 178h-332z" />
<glyph unicode="&#xbd;" horiz-adv-x="1689" d="M195 535l24 143h154l82 467l-181 -74l-36 117l280 145h164l-37 -139l-92 -516h143l-26 -143h-475zM469 55l825 1284l154 -71l-830 -1286zM1106 0l20 119l312 284q59 54 87.5 97.5t28.5 87.5q0 34 -21 51.5t-58 17.5q-82 0 -203 -79l-72 114q172 119 328 119 q109 0 164 -55t55 -142q0 -71 -34 -132.5t-118 -137.5l-217 -197h316l-27 -147h-561z" />
<glyph unicode="&#xbe;" horiz-adv-x="1689" d="M164 590l67 127q91 -53 195 -53q67 0 103 27.5t36 80.5q0 43 -35 127q-82 -28 -168 -43l-28 123q148 30 209 60q79 39 80 91q0 72 -82 72q-71 0 -205 -63l-55 110q164 97 317 97q99 0 154 -47.5t55 -122.5q0 -126 -125 -201q63 -113 63 -199q0 -51 -17.5 -94.5 t-53.5 -79.5t-99 -57t-147 -21q-70 0 -146 20t-118 46zM496 55l825 1284l154 -71l-830 -1286zM1040 178l21 109l344 534l139 -67l-295 -445h150l102 213h113l-39 -213h125l-23 -135h-125l-32 -174h-179l31 178h-332z" />
<glyph unicode="&#xbf;" horiz-adv-x="768" d="M76 -133q0 91 31.5 158.5t91.5 121.5t172 125q65 40 93 72t38 90l41 225h186q-6 -131 -22 -215q-21 -121 -62 -187.5t-141 -129.5q-99 -62 -128 -88q-62 -59 -63 -131q0 -55 30.5 -83t82.5 -28q84 0 244 56l8 -189q-172 -59 -303 -59q-150 0 -224.5 73.5t-74.5 188.5z M530 903q0 63 47.5 110.5t116.5 47.5q60 0 91.5 -31.5t31.5 -83.5q0 -63 -49 -109t-115 -46q-59 0 -91 30.5t-32 81.5z" />
<glyph unicode="&#xc0;" horiz-adv-x="1280" d="M25 0l698 1362h295l237 -1362h-245l-58 360h-479l-184 -360h-264zM549 549h379l-80 584h-10zM655 1710q0 41 32 73.5t91 63.5l287 -323l-68 -72q-149 85 -278 166q-64 41 -64 92z" />
<glyph unicode="&#xc1;" horiz-adv-x="1280" d="M25 0l698 1362h295l237 -1362h-245l-58 360h-479l-184 -360h-264zM549 549h379l-80 584h-10zM719 1532l371 303q100 -63 100 -125q0 -59 -103 -115q-40 -21 -89.5 -44t-122 -55t-99.5 -44z" />
<glyph unicode="&#xc2;" horiz-adv-x="1280" d="M25 0l698 1362h295l237 -1362h-245l-58 360h-479l-184 -360h-264zM549 549h379l-80 584h-10zM569 1524q154 154 269 245q34 27 56.5 38.5t51.5 11.5q27 0 48.5 -14.5t49.5 -45.5q93 -103 177 -235l-84 -70l-213 184l-277 -186z" />
<glyph unicode="&#xc3;" horiz-adv-x="1280" d="M25 0l698 1362h295l237 -1362h-245l-58 360h-479l-184 -360h-264zM549 549h379l-80 584h-10zM614 1501l9 152q88 59 180 59q55 0 139 -26.5t129 -26.5q67 0 133 37l-10 -162q-76 -37 -145 -37q-46 0 -140.5 22.5t-134.5 22.5q-79 0 -160 -41z" />
<glyph unicode="&#xc4;" horiz-adv-x="1280" d="M25 0l698 1362h295l237 -1362h-245l-58 360h-479l-184 -360h-264zM549 549h379l-80 584h-10zM584 1583q0 61 45 103.5t110 42.5q48 0 78.5 -31t30.5 -76q0 -60 -45.5 -102.5t-110.5 -42.5q-50 0 -79 29.5t-29 76.5zM983 1583q0 60 45 103t111 43q48 0 78 -31t30 -76 q0 -60 -45.5 -102.5t-109.5 -42.5q-50 0 -79.5 29.5t-29.5 76.5z" />
<glyph unicode="&#xc5;" horiz-adv-x="1280" d="M25 0l700 1360q-35 44 -35 108q0 90 65 155t163 65q81 0 124 -45.5t43 -118.5q0 -100 -71 -162l241 -1362h-245l-58 360h-479l-184 -360h-264zM549 549h379l-80 584h-10zM813 1481q0 -31 16.5 -50.5t47.5 -19.5q39 0 63.5 30t24.5 75q0 28 -16 46.5t-48 18.5 q-37 0 -62.5 -28t-25.5 -72z" />
<glyph unicode="&#xc6;" horiz-adv-x="1679" d="M14 0l703 1362h1124l-37 -217h-735l64 -342h530l-39 -215h-479l67 -371h441l-37 -217h-621l-61 381h-465l-195 -381h-260zM549 571h366l-84 553h-4z" />
<glyph unicode="&#xc7;" horiz-adv-x="1208" d="M193 518q0 188 42.5 338.5t113 248t167 162.5t198 92t212.5 27q145 0 259.5 -66.5t182.5 -195.5l-190 -118q-103 170 -273 170q-200 0 -325 -170t-125 -453q0 -178 71.5 -274.5t218.5 -96.5q159 0 345 144l106 -164q-211 -167 -444 -185l-52 -112q73 -5 118.5 -45.5 t45.5 -108.5q0 -57 -23.5 -98.5t-63 -63.5t-83.5 -32.5t-94 -10.5q-122 0 -192 39l51 111q65 -29 133 -29q55 0 85 20t30 56q0 41 -44 57.5t-128 14.5l100 202q-211 17 -326.5 156.5t-115.5 384.5z" />
<glyph unicode="&#xc8;" horiz-adv-x="1042" d="M143 0l240 1362h821l-37 -217h-573l-59 -342h491l-39 -215h-491l-64 -371h586l-39 -217h-836zM596 1710q0 41 32 73.5t91 63.5l287 -323l-68 -72q-161 92 -279 166q-63 41 -63 92z" />
<glyph unicode="&#xc9;" horiz-adv-x="1042" d="M143 0l240 1362h821l-37 -217h-573l-59 -342h491l-39 -215h-491l-64 -371h586l-39 -217h-836zM625 1532l370 303q101 -64 101 -125q0 -59 -103 -115q-40 -21 -89.5 -44t-122 -55t-99.5 -44z" />
<glyph unicode="&#xca;" horiz-adv-x="1042" d="M143 0l240 1362h821l-37 -217h-573l-59 -342h491l-39 -215h-491l-64 -371h586l-39 -217h-836zM489 1524q154 154 269 245q34 27 56.5 38.5t51.5 11.5q27 0 49 -14.5t50 -45.5q89 -99 176 -235l-84 -70l-213 184l-277 -186z" />
<glyph unicode="&#xcb;" horiz-adv-x="1042" d="M143 0l240 1362h821l-37 -217h-573l-59 -342h491l-39 -215h-491l-64 -371h586l-39 -217h-836zM500 1583q0 61 45 103.5t110 42.5q48 0 78.5 -31t30.5 -76q0 -60 -45.5 -102.5t-110.5 -42.5q-50 0 -79 29.5t-29 76.5zM899 1583q0 60 45 103t111 43q48 0 78 -31t30 -76 q0 -60 -45.5 -102.5t-109.5 -42.5q-50 0 -79.5 29.5t-29.5 76.5z" />
<glyph unicode="&#xcc;" horiz-adv-x="544" d="M147 0l240 1362h250l-240 -1362h-250zM309 1710q0 41 32 73.5t91 63.5l287 -323l-68 -72q-149 85 -278 166q-64 41 -64 92z" />
<glyph unicode="&#xcd;" horiz-adv-x="544" d="M147 0l240 1362h250l-240 -1362h-250zM352 1532l371 303q100 -63 100 -125q0 -60 -102 -115q-40 -21 -89.5 -44t-122 -55t-99.5 -44z" />
<glyph unicode="&#xce;" horiz-adv-x="544" d="M147 0l240 1362h250l-240 -1362h-250zM217 1524q158 158 268 245q34 27 57 38.5t52 11.5q27 0 48.5 -14.5t49.5 -45.5q89 -99 176 -235l-84 -70l-213 184l-276 -186z" />
<glyph unicode="&#xcf;" horiz-adv-x="544" d="M147 0l240 1362h250l-240 -1362h-250zM227 1583q0 60 45 103t111 43q48 0 78.5 -31t30.5 -76q0 -60 -45.5 -102.5t-110.5 -42.5q-50 0 -79.5 29.5t-29.5 76.5zM627 1583q0 61 45 103.5t110 42.5q48 0 78.5 -31t30.5 -76q0 -60 -45.5 -102.5t-110.5 -42.5q-50 0 -79 29.5 t-29 76.5z" />
<glyph unicode="&#xd0;" horiz-adv-x="1335" d="M121 588l35 196h141l102 578h445q258 0 400 -133t142 -385q0 -176 -41 -319t-112 -239.5t-169.5 -161.5t-210.5 -94.5t-239 -29.5h-454l102 588h-141zM444 197h205q219 0 349 167.5t130 452.5q0 346 -329 346h-185l-67 -379h348l-35 -196h-348z" />
<glyph unicode="&#xd1;" horiz-adv-x="1363" d="M143 0l240 1362h252l409 -946h3l165 946h248l-239 -1362h-240l-418 961h-4l-168 -961h-248zM668 1501l8 152q88 59 180 59q55 0 138.5 -26.5t129.5 -26.5q67 0 133 37l-10 -162q-76 -37 -145 -37q-46 0 -140.5 22.5t-134.5 22.5q-78 0 -159 -41z" />
<glyph unicode="&#xd2;" horiz-adv-x="1357" d="M190 492q0 122 19 225q27 155 85 275t129.5 193t161 119.5t172 64t171.5 17.5q103 0 189 -32.5t150.5 -95t101 -162.5t36.5 -228q0 -102 -16 -206q-27 -179 -92 -312.5t-159.5 -214.5t-210.5 -120.5t-253 -39.5q-229 0 -356.5 135.5t-127.5 381.5zM451 516 q0 -334 268 -334q89 0 161.5 40t120.5 110t79 152t48 180q15 96 15 165q0 55 -7 102.5t-25 93.5t-46 78.5t-72.5 52.5t-101.5 20q-89 0 -163 -39t-124.5 -107t-84 -150.5t-50.5 -177.5q-18 -106 -18 -186zM737 1710q0 41 32 73.5t91 63.5l287 -323l-68 -72q-149 85 -278 166 q-64 41 -64 92z" />
<glyph unicode="&#xd3;" horiz-adv-x="1357" d="M190 492q0 122 19 225q27 155 85 275t129.5 193t161 119.5t172 64t171.5 17.5q103 0 189 -32.5t150.5 -95t101 -162.5t36.5 -228q0 -102 -16 -206q-27 -179 -92 -312.5t-159.5 -214.5t-210.5 -120.5t-253 -39.5q-229 0 -356.5 135.5t-127.5 381.5zM451 516 q0 -334 268 -334q89 0 161.5 40t120.5 110t79 152t48 180q15 96 15 165q0 55 -7 102.5t-25 93.5t-46 78.5t-72.5 52.5t-101.5 20q-89 0 -163 -39t-124.5 -107t-84 -150.5t-50.5 -177.5q-18 -106 -18 -186zM754 1532l370 303q101 -64 101 -125q0 -59 -103 -115 q-40 -21 -89.5 -44t-122 -55t-99.5 -44z" />
<glyph unicode="&#xd4;" horiz-adv-x="1357" d="M190 492q0 122 19 225q27 155 85 275t129.5 193t161 119.5t172 64t171.5 17.5q103 0 189 -32.5t150.5 -95t101 -162.5t36.5 -228q0 -102 -16 -206q-27 -179 -92 -312.5t-159.5 -214.5t-210.5 -120.5t-253 -39.5q-229 0 -356.5 135.5t-127.5 381.5zM451 516 q0 -334 268 -334q89 0 161.5 40t120.5 110t79 152t48 180q15 96 15 165q0 55 -7 102.5t-25 93.5t-46 78.5t-72.5 52.5t-101.5 20q-89 0 -163 -39t-124.5 -107t-84 -150.5t-50.5 -177.5q-18 -106 -18 -186zM635 1524q158 158 268 245q34 27 57 38.5t52 11.5q27 0 48.5 -14.5 t49.5 -45.5q89 -99 176 -235l-84 -70l-213 184l-276 -186z" />
<glyph unicode="&#xd5;" horiz-adv-x="1357" d="M190 492q0 122 19 225q27 155 85 275t129.5 193t161 119.5t172 64t171.5 17.5q103 0 189 -32.5t150.5 -95t101 -162.5t36.5 -228q0 -102 -16 -206q-27 -179 -92 -312.5t-159.5 -214.5t-210.5 -120.5t-253 -39.5q-229 0 -356.5 135.5t-127.5 381.5zM451 516 q0 -334 268 -334q89 0 161.5 40t120.5 110t79 152t48 180q15 96 15 165q0 55 -7 102.5t-25 93.5t-46 78.5t-72.5 52.5t-101.5 20q-89 0 -163 -39t-124.5 -107t-84 -150.5t-50.5 -177.5q-18 -106 -18 -186zM674 1501l8 152q88 59 180 59q54 0 138 -26.5t130 -26.5 q68 0 134 37l-11 -162q-76 -37 -145 -37q-46 0 -140 22.5t-134 22.5q-79 0 -160 -41z" />
<glyph unicode="&#xd6;" horiz-adv-x="1357" d="M190 492q0 122 19 225q27 155 85 275t129.5 193t161 119.5t172 64t171.5 17.5q103 0 189 -32.5t150.5 -95t101 -162.5t36.5 -228q0 -102 -16 -206q-27 -179 -92 -312.5t-159.5 -214.5t-210.5 -120.5t-253 -39.5q-229 0 -356.5 135.5t-127.5 381.5zM451 516 q0 -334 268 -334q89 0 161.5 40t120.5 110t79 152t48 180q15 96 15 165q0 55 -7 102.5t-25 93.5t-46 78.5t-72.5 52.5t-101.5 20q-89 0 -163 -39t-124.5 -107t-84 -150.5t-50.5 -177.5q-18 -106 -18 -186zM639 1583q0 60 45 103t111 43q48 0 78 -31t30 -76 q0 -60 -45.5 -102.5t-109.5 -42.5q-50 0 -79.5 29.5t-29.5 76.5zM1038 1583q0 60 45 103t111 43q48 0 78.5 -31t30.5 -76q0 -60 -45.5 -102.5t-110.5 -42.5q-50 0 -79.5 29.5t-29.5 76.5z" />
<glyph unicode="&#xd7;" d="M244 412l274 231l-194 234l172 145l192 -234l273 234l120 -148l-274 -233l188 -225l-172 -148l-186 228l-272 -232z" />
<glyph unicode="&#xd8;" horiz-adv-x="1359" d="M172 -111l147 220q-129 135 -129 383q0 122 19 225q27 155 85 275t129.5 193t161 119.5t172 64t171.5 17.5q123 0 219 -45l123 185l164 -96l-138 -205q109 -135 109 -357q0 -102 -16 -206q-27 -179 -92 -312.5t-159.5 -214.5t-210.5 -120.5t-253 -39.5q-99 0 -197 31 l-145 -215zM451 516q0 -106 24 -174l539 803q-57 31 -123 31q-89 0 -163 -39t-124.5 -107t-84 -150.5t-50.5 -177.5q-18 -106 -18 -186zM606 201q49 -19 113 -19q89 0 161.5 40t120.5 110t79 152t48 180q15 96 15 165q0 80 -17 144z" />
<glyph unicode="&#xd9;" horiz-adv-x="1288" d="M201 322q0 64 10 118l162 922h248l-160 -918q-8 -54 -8 -73q0 -101 58.5 -144t170.5 -43q128 0 203 60t98 190l164 928h248l-170 -961q-76 -428 -561 -428q-232 0 -347.5 86t-115.5 263zM690 1710q0 41 32 73.5t91 63.5l287 -323l-68 -72q-149 85 -278 166q-64 41 -64 92 z" />
<glyph unicode="&#xda;" horiz-adv-x="1288" d="M201 322q0 64 10 118l162 922h248l-160 -918q-8 -54 -8 -73q0 -101 58.5 -144t170.5 -43q128 0 203 60t98 190l164 928h248l-170 -961q-76 -428 -561 -428q-232 0 -347.5 86t-115.5 263zM719 1532l371 303q100 -63 100 -125q0 -59 -103 -115q-40 -21 -89.5 -44t-122 -55 t-99.5 -44z" />
<glyph unicode="&#xdb;" horiz-adv-x="1288" d="M201 322q0 64 10 118l162 922h248l-160 -918q-8 -54 -8 -73q0 -101 58.5 -144t170.5 -43q128 0 203 60t98 190l164 928h248l-170 -961q-76 -428 -561 -428q-232 0 -347.5 86t-115.5 263zM588 1524q158 158 268 245q34 27 57 38.5t52 11.5q27 0 48.5 -14.5t49.5 -45.5 q89 -99 176 -235l-84 -70l-213 184l-276 -186z" />
<glyph unicode="&#xdc;" horiz-adv-x="1288" d="M201 322q0 64 10 118l162 922h248l-160 -918q-8 -54 -8 -73q0 -101 58.5 -144t170.5 -43q128 0 203 60t98 190l164 928h248l-170 -961q-76 -428 -561 -428q-232 0 -347.5 86t-115.5 263zM631 1583q0 61 45 103.5t110 42.5q48 0 78.5 -31t30.5 -76q0 -60 -45.5 -102.5 t-110.5 -42.5q-50 0 -79 29.5t-29 76.5zM1030 1583q0 60 45 103t111 43q48 0 78 -31t30 -76q0 -60 -45.5 -102.5t-109.5 -42.5q-50 0 -79.5 29.5t-29.5 76.5z" />
<glyph unicode="&#xdd;" horiz-adv-x="1138" d="M242 1362h262l192 -602h2l408 602h276l-596 -842l-92 -520h-250l93 520zM639 1532l371 303q100 -63 100 -125q0 -60 -102 -115q-39 -21 -89.5 -44.5t-122 -54.5t-100.5 -44z" />
<glyph unicode="&#xde;" horiz-adv-x="1167" d="M141 0l240 1362h250l-37 -211h213q201 0 313.5 -94.5t112.5 -268.5q0 -171 -79.5 -290.5t-214.5 -175.5t-314 -56h-187l-47 -266h-250zM473 465h148q168 0 259 68.5t91 230.5q0 56 -19 94.5t-55.5 58t-78.5 27.5t-99 8h-158z" />
<glyph unicode="&#xdf;" horiz-adv-x="1198" d="M57 -430l265 1495q12 71 32.5 127.5t61 112t97.5 93t146.5 60.5t204.5 23q201 0 306.5 -77t105.5 -194q0 -61 -25.5 -116t-64 -92.5t-83.5 -74t-83.5 -64t-64 -59.5t-25.5 -63q0 -34 28.5 -67t69 -63t81 -65.5t69 -90t28.5 -121.5q0 -176 -114 -270.5t-295 -94.5 q-84 0 -171.5 22.5t-133.5 55.5l86 170q106 -65 208 -65q78 0 127.5 39.5t49.5 117.5q0 44 -28 80t-67.5 63t-79.5 56t-68 73.5t-28 100.5q0 48 19.5 92t50.5 78t68 66t74 61.5t67.5 58.5t49.5 63t19 70q0 59 -53.5 92t-146.5 33q-118 0 -188 -60t-89 -171l-264 -1495h-242z " />
<glyph unicode="&#xe0;" horiz-adv-x="1103" d="M147 346q0 213 73 373.5t217.5 251t344.5 90.5q73 0 172.5 -17.5t194.5 -54.5l-139 -792l-15 -197h-211l4 109q-2 0 -4 1t-4 1q-62 -74 -135 -107t-174 -33q-158 0 -241 102t-83 273zM391 373q0 -100 39 -163t129 -63q93 0 157 54t77 125l92 532q-52 25 -146 25 q-77 0 -139 -34.5t-100 -87.5t-63.5 -123t-35.5 -135.5t-10 -129.5zM614 1483q0 52 42.5 80t109.5 43l192 -389l-86 -60q-152 156 -219 236q-39 45 -39 90z" />
<glyph unicode="&#xe1;" horiz-adv-x="1103" d="M147 346q0 213 73 373.5t217.5 251t344.5 90.5q73 0 172.5 -17.5t194.5 -54.5l-139 -792l-15 -197h-211l4 109q-2 0 -4 1t-4 1q-62 -74 -135 -107t-174 -33q-158 0 -241 102t-83 273zM391 373q0 -100 39 -163t129 -63q93 0 157 54t77 125l92 532q-52 25 -146 25 q-77 0 -139 -34.5t-100 -87.5t-63.5 -123t-35.5 -135.5t-10 -129.5zM643 1221l297 376q137 -35 137 -108q0 -43 -76 -113q-91 -81 -288 -219z" />
<glyph unicode="&#xe2;" horiz-adv-x="1103" d="M147 346q0 213 73 373.5t217.5 251t344.5 90.5q73 0 172.5 -17.5t194.5 -54.5l-139 -792l-15 -197h-211l4 109q-2 0 -4 1t-4 1q-62 -74 -135 -107t-174 -33q-158 0 -241 102t-83 273zM391 373q0 -100 39 -163t129 -63q93 0 157 54t77 125l92 532q-52 25 -146 25 q-77 0 -139 -34.5t-100 -87.5t-63.5 -123t-35.5 -135.5t-10 -129.5zM473 1247q138 163 258 279q40 37 65 51t60 14q37 0 56.5 -13t45.5 -52q94 -136 162 -283l-84 -63l-205 215l-278 -215z" />
<glyph unicode="&#xe3;" horiz-adv-x="1103" d="M147 346q0 213 73 373.5t217.5 251t344.5 90.5q73 0 172.5 -17.5t194.5 -54.5l-139 -792l-15 -197h-211l4 109q-2 0 -4 1t-4 1q-62 -74 -135 -107t-174 -33q-158 0 -241 102t-83 273zM391 373q0 -100 39 -163t129 -63q93 0 157 54t77 125l92 532q-52 25 -146 25 q-77 0 -139 -34.5t-100 -87.5t-63.5 -123t-35.5 -135.5t-10 -129.5zM535 1260l8 151q84 59 180 59q55 0 139 -26.5t129 -26.5q53 0 133 37l-10 -160q-76 -39 -147 -39q-46 0 -140 24t-133 24q-74 0 -159 -43z" />
<glyph unicode="&#xe4;" horiz-adv-x="1103" d="M147 346q0 213 73 373.5t217.5 251t344.5 90.5q73 0 172.5 -17.5t194.5 -54.5l-139 -792l-15 -197h-211l4 109q-2 0 -4 1t-4 1q-62 -74 -135 -107t-174 -33q-158 0 -241 102t-83 273zM391 373q0 -100 39 -163t129 -63q93 0 157 54t77 125l92 532q-52 25 -146 25 q-77 0 -139 -34.5t-100 -87.5t-63.5 -123t-35.5 -135.5t-10 -129.5zM498 1341q0 61 45 103.5t110 42.5q48 0 78.5 -31t30.5 -76q0 -60 -45.5 -102.5t-110.5 -42.5q-50 0 -79 29.5t-29 76.5zM897 1341q0 60 45 103t111 43q48 0 78 -31t30 -76q0 -60 -45.5 -102.5 t-109.5 -42.5q-50 0 -79.5 29.5t-29.5 76.5z" />
<glyph unicode="&#xe5;" horiz-adv-x="1103" d="M147 346q0 213 73 373.5t217.5 251t344.5 90.5q73 0 172.5 -17.5t194.5 -54.5l-139 -792l-15 -197h-211l4 109q-2 0 -4 1t-4 1q-62 -74 -135 -107t-174 -33q-158 0 -241 102t-83 273zM391 373q0 -100 39 -163t129 -63q93 0 157 54t77 125l92 532q-52 25 -146 25 q-77 0 -139 -34.5t-100 -87.5t-63.5 -123t-35.5 -135.5t-10 -129.5zM621 1317q0 90 64.5 154.5t162.5 64.5q81 0 124.5 -46t43.5 -118q0 -92 -64 -154.5t-164 -62.5q-81 0 -124 45.5t-43 116.5zM743 1329q0 -31 16.5 -50t47.5 -19q39 0 63.5 29.5t24.5 74.5q0 28 -16 47 t-48 19q-37 0 -62.5 -28.5t-25.5 -72.5z" />
<glyph unicode="&#xe6;" horiz-adv-x="1519" d="M147 348q0 208 74 368t220.5 252.5t346.5 92.5q65 0 142.5 -18.5t138.5 -49.5q123 68 266 68q134 0 207.5 -62.5t73.5 -179.5q0 -73 -25.5 -133t-66.5 -100t-99.5 -71t-115.5 -48.5t-123.5 -28.5t-116 -15t-100.5 -5q-16 -113 36.5 -187.5t172.5 -74.5q131 0 266 86 l63 -156q-49 -38 -158 -77.5t-237 -39.5q-107 0 -185 31t-120 86q-159 -117 -324 -117q-90 0 -156.5 29.5t-105 83t-56.5 119.5t-18 147zM395 387q0 -106 41 -171.5t129 -65.5q103 0 178 65q-22 61 -22 160q0 262 174 471q-76 39 -170 39q-81 0 -146.5 -47t-104 -122 t-59 -160t-20.5 -169zM989 575q40 -1 87.5 4t105.5 19.5t104 37.5t77.5 62.5t31.5 89.5q0 45 -32.5 71t-76.5 26q-61 0 -113.5 -29t-88 -76t-59.5 -99t-36 -106z" />
<glyph unicode="&#xe7;" horiz-adv-x="942" d="M156 399q0 143 34 258.5t89.5 189.5t130 123.5t150.5 70t157 20.5q115 0 211 -50.5t147 -160.5l-168 -111q-75 127 -192 127q-137 0 -223 -119.5t-86 -320.5q0 -123 51.5 -192.5t156.5 -69.5q118 0 248 86l74 -166q-61 -44 -148 -75t-184 -38l-49 -106q73 -5 118.5 -45.5 t45.5 -108.5q0 -57 -23.5 -98.5t-63 -63.5t-83.5 -32.5t-94 -10.5q-123 0 -193 39l51 111q65 -29 133 -29q55 0 85 20t30 56q0 41 -44 57.5t-128 14.5l98 198q-161 19 -246 129t-85 297z" />
<glyph unicode="&#xe8;" horiz-adv-x="962" d="M154 381q0 133 42 255.5t117.5 217t190 151t250.5 56.5q138 0 216.5 -65.5t78.5 -174.5q0 -74 -25 -135t-65 -101.5t-97.5 -71.5t-114 -48.5t-124 -28.5t-119 -14.5t-105.5 -3.5q-4 -52 4.5 -96.5t31.5 -82.5t67.5 -59.5t107.5 -21.5q123 0 264 90l74 -160 q-55 -42 -159 -80.5t-238 -38.5q-103 0 -180 30.5t-124 86.5t-70 130t-23 165zM422 584q41 -1 88 3t105 17.5t103 35t76 60t31 88.5q0 46 -29.5 71.5t-78.5 25.5q-61 0 -113 -27.5t-87.5 -73t-59 -96t-35.5 -104.5zM559 1483q0 52 42.5 80t109.5 43l192 -389l-86 -60 q-152 156 -219 236q-39 45 -39 90z" />
<glyph unicode="&#xe9;" horiz-adv-x="962" d="M154 381q0 133 42 255.5t117.5 217t190 151t250.5 56.5q138 0 216.5 -65.5t78.5 -174.5q0 -74 -25 -135t-65 -101.5t-97.5 -71.5t-114 -48.5t-124 -28.5t-119 -14.5t-105.5 -3.5q-4 -52 4.5 -96.5t31.5 -82.5t67.5 -59.5t107.5 -21.5q123 0 264 90l74 -160 q-55 -42 -159 -80.5t-238 -38.5q-103 0 -180 30.5t-124 86.5t-70 130t-23 165zM422 584q41 -1 88 3t105 17.5t103 35t76 60t31 88.5q0 46 -29.5 71.5t-78.5 25.5q-61 0 -113 -27.5t-87.5 -73t-59 -96t-35.5 -104.5zM571 1221l297 376q138 -35 138 -108q0 -43 -76 -113 q-87 -78 -289 -219z" />
<glyph unicode="&#xea;" horiz-adv-x="962" d="M154 381q0 133 42 255.5t117.5 217t190 151t250.5 56.5q138 0 216.5 -65.5t78.5 -174.5q0 -74 -25 -135t-65 -101.5t-97.5 -71.5t-114 -48.5t-124 -28.5t-119 -14.5t-105.5 -3.5q-4 -52 4.5 -96.5t31.5 -82.5t67.5 -59.5t107.5 -21.5q123 0 264 90l74 -160 q-55 -42 -159 -80.5t-238 -38.5q-103 0 -180 30.5t-124 86.5t-70 130t-23 165zM422 584q41 -1 88 3t105 17.5t103 35t76 60t31 88.5q0 46 -29.5 71.5t-78.5 25.5q-61 0 -113 -27.5t-87.5 -73t-59 -96t-35.5 -104.5zM438 1247q138 163 258 279q40 37 65 51t60 14 q37 0 57 -13.5t46 -51.5q91 -132 161 -283l-84 -63l-204 215l-279 -215z" />
<glyph unicode="&#xeb;" horiz-adv-x="962" d="M154 381q0 133 42 255.5t117.5 217t190 151t250.5 56.5q138 0 216.5 -65.5t78.5 -174.5q0 -74 -25 -135t-65 -101.5t-97.5 -71.5t-114 -48.5t-124 -28.5t-119 -14.5t-105.5 -3.5q-4 -52 4.5 -96.5t31.5 -82.5t67.5 -59.5t107.5 -21.5q123 0 264 90l74 -160 q-55 -42 -159 -80.5t-238 -38.5q-103 0 -180 30.5t-124 86.5t-70 130t-23 165zM422 584q41 -1 88 3t105 17.5t103 35t76 60t31 88.5q0 46 -29.5 71.5t-78.5 25.5q-61 0 -113 -27.5t-87.5 -73t-59 -96t-35.5 -104.5zM444 1341q0 60 45 103t111 43q48 0 78.5 -31t30.5 -76 q0 -60 -45.5 -102.5t-110.5 -42.5q-50 0 -79.5 29.5t-29.5 76.5zM844 1341q0 61 45 103.5t110 42.5q48 0 78.5 -31t30.5 -76q0 -60 -45.5 -102.5t-110.5 -42.5q-50 0 -79 29.5t-29 76.5z" />
<glyph unicode="&#xec;" horiz-adv-x="499" d="M133 0l182 1030h246l-182 -1030h-246zM301 1483q0 52 42.5 80t109.5 43l192 -389l-86 -60q-152 156 -219 236q-39 45 -39 90z" />
<glyph unicode="&#xed;" horiz-adv-x="499" d="M133 0l182 1030h246l-182 -1030h-246zM299 1221l297 376q137 -35 137 -108q0 -43 -76 -113q-91 -81 -288 -219z" />
<glyph unicode="&#xee;" horiz-adv-x="499" d="M133 0l182 1030h246l-182 -1030h-246zM154 1247q138 163 258 279q40 37 65 51t60 14q37 0 56.5 -13t45.5 -52q94 -136 162 -283l-84 -63l-205 215l-279 -215z" />
<glyph unicode="&#xef;" horiz-adv-x="499" d="M133 0l182 1030h246l-182 -1030h-246zM164 1341q0 61 45 103.5t110 42.5q48 0 78.5 -31t30.5 -76q0 -60 -45.5 -102.5t-110.5 -42.5q-50 0 -79 29.5t-29 76.5zM563 1341q0 60 45 103t111 43q48 0 78 -31t30 -76q0 -60 -45.5 -102.5t-109.5 -42.5q-50 0 -79.5 29.5 t-29.5 76.5z" />
<glyph unicode="&#xf0;" horiz-adv-x="1040" d="M125 334q0 84 10 135q41 218 164.5 330t314.5 112q63 0 130 -20t116 -57q-3 160 -69 266l-185 -113l-80 129l154 98q-80 55 -191 76l68 178q200 -26 326 -133l184 113l78 -129l-154 -96q109 -185 109 -418q0 -139 -21 -256q-22 -129 -65.5 -231t-112.5 -181.5 t-170 -122.5t-229 -43q-187 0 -282 102t-95 261zM381 354q0 -89 40 -138.5t116 -49.5q111 0 186 102t104 267q1 8 5.5 32.5t7.5 45.5t4 34q-30 30 -90 53t-115 23q-201 0 -250 -272q-8 -44 -8 -97z" />
<glyph unicode="&#xf1;" horiz-adv-x="1101" d="M133 0l150 852l14 178h205l-2 -129q141 160 342 160q269 0 272 -252q0 -55 -10 -117l-123 -692h-244l115 651q8 44 8 92q0 62 -25.5 95.5t-89.5 33.5q-94 0 -166.5 -61.5t-86.5 -142.5l-117 -668h-242zM496 1260l8 151q84 59 180 59q55 0 139 -26.5t129 -26.5 q53 0 133 37l-10 -160q-76 -39 -147 -39q-46 0 -140 24t-133 24q-74 0 -159 -43z" />
<glyph unicode="&#xf2;" horiz-adv-x="1077" d="M147 367q0 -192 97.5 -295t277.5 -103q84 0 158.5 18t143.5 59t122.5 103.5t92.5 155t57 209.5q10 71 10 162q0 93 -26 164.5t-65 112t-92 66t-99 34t-93 8.5q-70 0 -136 -13.5t-138 -50t-128.5 -93.5t-102.5 -152t-66 -217q-13 -79 -13 -168zM397 367q0 91 15 180 q27 153 99 243.5t181 90.5q160 0 160 -215q0 -91 -12 -164q-29 -165 -100.5 -258.5t-180.5 -93.5q-162 0 -162 217zM571 1483q0 52 42.5 80t109.5 43l192 -389l-86 -60q-152 156 -219 236q-39 45 -39 90z" />
<glyph unicode="&#xf3;" horiz-adv-x="1077" d="M147 367q0 89 13 168q20 122 66 217t102.5 152t128.5 93.5t138 50t136 13.5q47 0 93 -8.5t99 -34t92 -66t65 -112t26 -164.5q0 -91 -10 -162q-18 -117 -57 -209.5t-92.5 -155t-122.5 -103.5t-143.5 -59t-158.5 -18q-180 0 -277.5 103t-97.5 295zM397 367q0 -217 162 -217 q109 0 180.5 93.5t100.5 258.5q12 73 12 164q0 215 -160 215q-109 0 -181 -90.5t-99 -243.5q-15 -88 -15 -180zM600 1221l297 376q137 -35 137 -108q0 -43 -76 -113q-91 -81 -288 -219z" />
<glyph unicode="&#xf4;" horiz-adv-x="1077" d="M147 367q0 -192 97.5 -295t277.5 -103q84 0 158.5 18t143.5 59t122.5 103.5t92.5 155t57 209.5q10 71 10 162q0 93 -26 164.5t-65 112t-92 66t-99 34t-93 8.5q-70 0 -136 -13.5t-138 -50t-128.5 -93.5t-102.5 -152t-66 -217q-13 -79 -13 -168zM397 367q0 91 15 180 q27 153 99 243.5t181 90.5q160 0 160 -215q0 -91 -12 -164q-29 -165 -100.5 -258.5t-180.5 -93.5q-162 0 -162 217zM438 1247q138 163 258 279q40 37 65 51t60 14q37 0 57 -13.5t46 -51.5q91 -132 161 -283l-84 -63l-204 215l-279 -215z" />
<glyph unicode="&#xf5;" horiz-adv-x="1077" d="M147 367q0 89 13 168q20 122 66 217t102.5 152t128.5 93.5t138 50t136 13.5q47 0 93 -8.5t99 -34t92 -66t65 -112t26 -164.5q0 -91 -10 -162q-18 -117 -57 -209.5t-92.5 -155t-122.5 -103.5t-143.5 -59t-158.5 -18q-180 0 -277.5 103t-97.5 295zM397 367q0 -217 162 -217 q109 0 180.5 93.5t100.5 258.5q12 73 12 164q0 215 -160 215q-109 0 -181 -90.5t-99 -243.5q-15 -88 -15 -180zM487 1260l9 151q84 59 180 59q54 0 138 -26.5t130 -26.5q53 0 133 37l-10 -160q-76 -39 -147 -39q-46 0 -140 24t-133 24q-75 0 -160 -43z" />
<glyph unicode="&#xf6;" horiz-adv-x="1077" d="M147 367q0 -192 97.5 -295t277.5 -103q84 0 158.5 18t143.5 59t122.5 103.5t92.5 155t57 209.5q10 71 10 162q0 93 -26 164.5t-65 112t-92 66t-99 34t-93 8.5q-70 0 -136 -13.5t-138 -50t-128.5 -93.5t-102.5 -152t-66 -217q-13 -79 -13 -168zM397 367q0 91 15 180 q27 153 99 243.5t181 90.5q160 0 160 -215q0 -91 -12 -164q-29 -165 -100.5 -258.5t-180.5 -93.5q-162 0 -162 217zM449 1341q0 61 45 103.5t110 42.5q48 0 78.5 -31t30.5 -76q0 -60 -45.5 -102.5t-110.5 -42.5q-50 0 -79 29.5t-29 76.5zM848 1341q0 60 45 103t111 43 q48 0 78 -31t30 -76q0 -60 -45.5 -102.5t-110.5 -42.5q-50 0 -79 29.5t-29 76.5z" />
<glyph unicode="&#xf7;" d="M229 545l35 198h830l-35 -198h-830zM461 246q0 68 45.5 117t114.5 49q53 0 82.5 -31t29.5 -82q0 -68 -46 -117t-114 -49q-54 0 -83 30.5t-29 82.5zM573 973q0 68 45.5 117t114.5 49q53 0 83 -31t30 -82q0 -68 -46 -117t-114 -49q-54 0 -83.5 30.5t-29.5 82.5z" />
<glyph unicode="&#xf8;" horiz-adv-x="1077" d="M109 -98l124 180q-86 103 -86 285q0 89 13 168q20 122 66 217t102.5 152t128.5 93.5t138 50t136 13.5q79 0 162 -29l106 154l134 -82l-113 -160q86 -99 86 -268q0 -91 -10 -162q-18 -117 -57 -209.5t-92.5 -155t-122.5 -103.5t-143.5 -59t-158.5 -18q-90 0 -160 27 l-120 -178zM397 367q0 -34 2 -48l375 541q-34 21 -82 21q-109 0 -181 -90.5t-99 -243.5q-15 -88 -15 -180zM481 166q32 -16 78 -16q109 0 180.5 93.5t100.5 258.5q12 73 12 164q0 22 -2 32z" />
<glyph unicode="&#xf9;" horiz-adv-x="1105" d="M178 238q0 40 10 102l121 690h244l-115 -653q-10 -52 -10 -90q0 -60 29.5 -93.5t103.5 -33.5q84 0 153 62t83 143l118 665h244l-151 -858l-15 -172h-209l4 119l-12 2q-116 -150 -313 -150q-144 0 -214.5 69.5t-70.5 197.5zM561 1483q0 52 42.5 80t109.5 43l192 -389 l-86 -60q-152 156 -219 236q-39 45 -39 90z" />
<glyph unicode="&#xfa;" horiz-adv-x="1105" d="M178 238q0 40 10 102l121 690h244l-115 -653q-10 -52 -10 -90q0 -60 29.5 -93.5t103.5 -33.5q84 0 153 62t83 143l118 665h244l-151 -858l-15 -172h-209l4 119l-12 2q-116 -150 -313 -150q-144 0 -214.5 69.5t-70.5 197.5zM610 1221l297 376q137 -35 137 -108 q0 -44 -75 -113q-87 -78 -289 -219z" />
<glyph unicode="&#xfb;" horiz-adv-x="1105" d="M178 238q0 40 10 102l121 690h244l-115 -653q-10 -52 -10 -90q0 -60 29.5 -93.5t103.5 -33.5q84 0 153 62t83 143l118 665h244l-151 -858l-15 -172h-209l4 119l-12 2q-116 -150 -313 -150q-144 0 -214.5 69.5t-70.5 197.5zM442 1247q138 163 258 279q40 37 65 51t60 14 q37 0 57 -13.5t46 -51.5q94 -136 162 -283l-84 -63l-205 215l-279 -215z" />
<glyph unicode="&#xfc;" horiz-adv-x="1105" d="M178 238q0 40 10 102l121 690h244l-115 -653q-10 -52 -10 -90q0 -60 29.5 -93.5t103.5 -33.5q84 0 153 62t83 143l118 665h244l-151 -858l-15 -172h-209l4 119l-12 2q-116 -150 -313 -150q-144 0 -214.5 69.5t-70.5 197.5zM459 1341q0 61 45 103.5t110 42.5 q48 0 78.5 -31t30.5 -76q0 -60 -45.5 -102.5t-110.5 -42.5q-50 0 -79 29.5t-29 76.5zM858 1341q0 60 45 103t111 43q48 0 78 -31t30 -76q0 -60 -45.5 -102.5t-109.5 -42.5q-50 0 -79.5 29.5t-29.5 76.5z" />
<glyph unicode="&#xfd;" horiz-adv-x="1099" d="M125 -293q0 126 66.5 213t222.5 160q-119 15 -171.5 73t-52.5 162q0 42 9 91l110 624h244l-104 -598q-11 -57 -11 -88q0 -61 32.5 -94t113.5 -33q78 0 142 54.5t79 140.5l110 618h242l-158 -901q-31 -192 -61 -283q-122 -391 -506 -391q-148 0 -227.5 68.5t-79.5 183.5z M352 -248q0 -56 33.5 -85t91.5 -29q103 0 161.5 74.5t84.5 215.5l37 199q-76 -73 -197 -135q-113 -58 -162 -107.5t-49 -132.5zM596 1221l297 376q137 -35 137 -108q0 -43 -76 -113q-91 -81 -288 -219z" />
<glyph unicode="&#xfe;" horiz-adv-x="1085" d="M47 -430l328 1853h243l-69 -391q135 27 215 27q179 0 267.5 -101t88.5 -294q0 -319 -151 -509t-398 -190q-117 0 -200 55l-80 -450h-244zM406 219q31 -31 80 -51.5t96 -20.5q118 0 204 139.5t86 346.5q0 239 -196 239q-93 0 -158 -22z" />
<glyph unicode="&#xff;" horiz-adv-x="1099" d="M125 -293q0 126 66.5 213t222.5 160q-119 15 -171.5 73t-52.5 162q0 42 9 91l110 624h244l-104 -598q-11 -57 -11 -88q0 -61 32.5 -94t113.5 -33q78 0 142 54.5t79 140.5l110 618h242l-158 -901q-31 -192 -61 -283q-122 -391 -506 -391q-148 0 -227.5 68.5t-79.5 183.5z M352 -248q0 -56 33.5 -85t91.5 -29q103 0 161.5 74.5t84.5 215.5l37 199q-76 -73 -197 -135q-113 -58 -162 -107.5t-49 -132.5zM461 1341q0 61 45 103.5t110 42.5q48 0 78.5 -31t30.5 -76q0 -60 -45.5 -102.5t-110.5 -42.5q-50 0 -79 29.5t-29 76.5zM860 1341q0 60 45 103 t111 43q48 0 78 -31t30 -76q0 -60 -45.5 -102.5t-109.5 -42.5q-50 0 -79.5 29.5t-29.5 76.5z" />
<glyph unicode="&#x152;" horiz-adv-x="1796" d="M193 522q0 187 43.5 337.5t115 247t169.5 161t201 91.5t216 27q124 0 229 -24h791l-37 -217h-571l-60 -342h490l-39 -215h-490l-65 -371h586l-39 -217h-813q-130 -29 -234 -29q-236 0 -364.5 144t-128.5 407zM453 545q0 -365 299 -365q106 0 182 31l164 930 q-76 35 -180 35q-96 0 -175.5 -38t-132 -100.5t-89 -145t-52.5 -170t-16 -177.5z" />
<glyph unicode="&#x153;" horiz-adv-x="1617" d="M147 367q0 89 13 168q20 122 66 217t102.5 152t128.5 93.5t138 50t136 13.5q89 0 171 -36.5t130 -125.5q152 162 387 162q140 0 217.5 -63t77.5 -177q0 -74 -26 -134.5t-66.5 -101t-99 -71.5t-115.5 -48.5t-124.5 -28.5t-116.5 -14.5t-101 -4.5q-4 -52 5 -97t32 -83 t68 -60t108 -22q123 0 264 90l70 -158q-54 -41 -160 -80t-235 -39q-228 0 -314 150q-142 -150 -381 -150q-180 0 -277.5 103t-97.5 295zM397 367q0 -217 162 -217q109 0 180.5 93.5t100.5 258.5q12 73 12 164q0 215 -160 215q-109 0 -181 -90.5t-99 -243.5q-15 -88 -15 -180 zM1085 575q40 -1 88 4t106 19.5t104 37.5t77 62.5t31 89.5q0 46 -30 71.5t-79 25.5q-61 0 -113 -28t-88 -74t-60 -98.5t-36 -109.5z" />
<glyph unicode="&#x178;" horiz-adv-x="1138" d="M242 1362l295 -842l-93 -520h250l92 520l596 842h-276l-408 -602h-2l-192 602h-262zM524 1583q0 60 45 103t111 43q48 0 78 -31t30 -76q0 -60 -45.5 -102.5t-109.5 -42.5q-50 0 -79.5 29.5t-29.5 76.5zM924 1583q0 61 45 103.5t110 42.5q48 0 78.5 -31t30.5 -76 q0 -60 -45.5 -102.5t-110.5 -42.5q-50 0 -79 29.5t-29 76.5z" />
<glyph unicode="&#x2c6;" horiz-adv-x="1024" d="M406 1247q138 163 258 279q40 37 65 51t59 14q37 0 57 -13.5t46 -51.5q94 -136 162 -283l-84 -63l-205 215l-279 -215z" />
<glyph unicode="&#x2dc;" horiz-adv-x="1024" d="M453 1260l8 151q84 59 180 59q55 0 139 -26.5t129 -26.5q53 0 133 37l-10 -160q-76 -39 -147 -39q-46 0 -140 24t-133 24q-74 0 -159 -43z" />
<glyph unicode="&#x2000;" horiz-adv-x="923" />
<glyph unicode="&#x2001;" horiz-adv-x="1847" />
<glyph unicode="&#x2002;" horiz-adv-x="923" />
<glyph unicode="&#x2003;" horiz-adv-x="1847" />
<glyph unicode="&#x2004;" horiz-adv-x="615" />
<glyph unicode="&#x2005;" horiz-adv-x="461" />
<glyph unicode="&#x2006;" horiz-adv-x="307" />
<glyph unicode="&#x2007;" horiz-adv-x="307" />
<glyph unicode="&#x2008;" horiz-adv-x="230" />
<glyph unicode="&#x2009;" horiz-adv-x="369" />
<glyph unicode="&#x200a;" horiz-adv-x="102" />
<glyph unicode="&#x2010;" horiz-adv-x="659" d="M145 496l33 188h537l-33 -188h-537z" />
<glyph unicode="&#x2011;" horiz-adv-x="659" d="M145 496l33 188h537l-33 -188h-537z" />
<glyph unicode="&#x2012;" horiz-adv-x="659" d="M145 496l33 188h537l-33 -188h-537z" />
<glyph unicode="&#x2013;" horiz-adv-x="1024" d="M88 500l29 170h1024l-29 -170h-1024z" />
<glyph unicode="&#x2014;" horiz-adv-x="2048" d="M88 500l29 170h2048l-29 -170h-2048z" />
<glyph unicode="&#x2018;" horiz-adv-x="448" d="M264 1061q0 110 281 440l123 -49l-199 -475q-32 -4 -66 -4q-139 0 -139 88z" />
<glyph unicode="&#x2019;" horiz-adv-x="440" d="M244 999l188 484q27 6 70 6q139 0 139 -86q0 -60 -74 -173.5t-198 -271.5z" />
<glyph unicode="&#x201a;" horiz-adv-x="456" d="M6 -258q83 261 135 377q24 56 53.5 82t73.5 26q41 0 85 -25t69 -52l-291 -451z" />
<glyph unicode="&#x201c;" horiz-adv-x="776" d="M258 1061q0 110 281 440l123 -49l-199 -475q-32 -4 -66 -4q-139 0 -139 88zM598 1061q0 110 281 440l122 -49l-198 -475q-32 -4 -66 -4q-139 0 -139 88z" />
<glyph unicode="&#x201d;" horiz-adv-x="774" d="M244 999l188 484q27 6 70 6q139 0 139 -86q0 -60 -74 -173.5t-198 -271.5zM584 999l188 484q27 6 70 6q139 0 139 -86q0 -60 -74 -173.5t-198 -271.5z" />
<glyph unicode="&#x201e;" horiz-adv-x="804" d="M6 -258q83 261 135 377q24 56 53.5 82t73.5 26q41 0 85 -25t69 -52l-291 -451zM346 -258q83 261 135 377q24 56 53.5 82t73.5 26q41 0 85 -25t69 -52l-291 -451z" />
<glyph unicode="&#x2022;" horiz-adv-x="1024" d="M381 592q0 129 82.5 212t200.5 83q91 0 147.5 -57t56.5 -152q0 -130 -82 -213.5t-198 -83.5q-97 0 -152 58t-55 153z" />
<glyph unicode="&#x2026;" horiz-adv-x="1488" d="M98 84q0 69 48 116.5t120 47.5q59 0 91 -30.5t32 -82.5q0 -68 -46.5 -117t-119.5 -49q-61 0 -93 31t-32 84zM627 84q0 69 48 116.5t120 47.5q59 0 91 -30.5t32 -82.5q0 -68 -46.5 -117t-119.5 -49q-61 0 -93 31t-32 84zM1139 84q0 69 48 116.5t120 47.5q59 0 91 -30.5 t32 -82.5q0 -68 -46.5 -117t-119.5 -49q-61 0 -93 31t-32 84z" />
<glyph unicode="&#x202f;" horiz-adv-x="369" />
<glyph unicode="&#x2039;" horiz-adv-x="667" d="M199 539q0 47 69 104q110 91 398 287l84 -107l-316 -297l180 -323l-106 -82q-73 68 -162.5 175t-130.5 179q-16 27 -16 64z" />
<glyph unicode="&#x203a;" horiz-adv-x="667" d="M119 219l307 330l-203 291l107 90q147 -129 288 -285q15 -19 21.5 -28.5t13 -26t6.5 -33.5q0 -41 -38 -82q-60 -64 -193 -176.5t-225 -177.5z" />
<glyph unicode="&#x205f;" horiz-adv-x="461" />
<glyph unicode="&#x20ac;" d="M131 453h215q-127 -80 -127 -220q0 -41 11.5 -77.5t39 -71t70 -59t109.5 -39.5t151 -15q276 0 498 127l-72 174q-99 -55 -184.5 -82.5t-182.5 -27.5q-88 0 -135 35.5t-47 99.5q0 72 49.5 114t135.5 42h360l31 168h-891zM174 696l31 168h194q-45 51 -45 146 q0 108 67.5 186t174.5 114t240 36q257 0 442 -185l-137 -145q-85 71 -157.5 106t-168.5 35q-57 0 -104 -13.5t-83 -52t-36 -98.5q0 -58 37.5 -93.5t105.5 -35.5h361l-31 -168h-891z" />
<glyph unicode="&#x2122;" horiz-adv-x="1413" d="M217 1221v141h545v-141h-195v-547h-164v547h-186zM813 674l43 688h168l152 -455l157 455h164l41 -688h-147l-21 426l-135 -377h-121l-133 375l-23 -424h-145z" />
<glyph unicode="&#xe000;" horiz-adv-x="1034" d="M0 0v1034h1034v-1034h-1034z" />
</font>
</defs>
</svg>
